<?xml version="1.0" standalone="yes"?>

<svg version="1.1" viewBox="0.0 0.0 841.0 917.0" fill="none" stroke="none" stroke-linecap="square" stroke-miterlimit="10" xmlns="http://www.w3.org/2000/svg" xmlns:xlink="http://www.w3.org/1999/xlink"><clipPath id="p.0"><path d="m0 0l841.0 0l0 917.0l-841.0 0l0 -917.0z" clip-rule="nonzero"></path></clipPath><g clip-path="url(#p.0)"><path fill="#000000" fill-opacity="0.0" d="m0 0l841.79266 0l0 917.52496l-841.79266 0z" fill-rule="nonzero"></path><path fill="#ffffff" d="m47.33727 458.76248l0 0c0 -206.31097 167.2481 -373.55908 373.55905 -373.55908l0 0c99.074066 0 194.09024 39.357002 264.14615 109.41292c70.05591 70.05591 109.412964 165.07211 109.412964 264.14615l0 0c0 206.311 -167.24811 373.55905 -373.5591 373.55905l0 0c-206.31097 0 -373.55905 -167.24805 -373.55905 -373.55905z" fill-rule="nonzero"></path><path stroke="#000000" stroke-width="16.0" stroke-linejoin="round" stroke-linecap="butt" d="m47.33727 458.76248l0 0c0 -206.31097 167.2481 -373.55908 373.55905 -373.55908l0 0c99.074066 0 194.09024 39.357002 264.14615 109.41292c70.05591 70.05591 109.412964 165.07211 109.412964 264.14615l0 0c0 206.311 -167.24811 373.55905 -373.5591 373.55905l0 0c-206.31097 0 -373.55905 -167.24805 -373.55905 -373.55905z" fill-rule="nonzero"></path><path fill="#000000" d="m569.17194 335.3517c1.5314941 -0.552063 4.1259766 -1.4707031 5.8135986 -2.2519836c1.6876831 -0.7812805 3.125122 -1.1964111 4.312378 -2.4356995c1.1871948 -1.2392578 2.1132812 -3.447937 2.8110352 -5.0c0.6976929 -1.5520325 0.20861816 -3.2182617 1.3753052 -4.312317c1.166687 -1.0940552 3.4370117 -1.2620239 5.624695 -2.2519836c2.187622 -0.9899292 5.615906 -2.573059 7.5012817 -3.6876526c1.885376 -1.114624 2.5092163 -0.8753357 3.8110352 -3.0c1.3018188 -2.1246643 3.052063 -7.737976 4.0 -9.748047c0.947937 -2.0100403 0.4689331 -1.2497864 1.6876831 -2.312317c1.218689 -1.062561 3.8118896 -2.5314941 5.624634 -4.0629883c1.8128052 -1.5314941 3.876648 -3.54245 5.251953 -5.126007c1.3753662 -1.5835571 2.229248 -2.8027039 3.0 -4.375305c0.770813 -1.5726318 1.4165039 -3.6023865 1.6246948 -5.0603943c0.20825195 -1.4579773 -0.81274414 -2.5520325 -0.37530518 -3.6876526c0.43743896 -1.1356201 1.833313 -2.0634155 3.0 -3.1259766c1.166626 -1.062561 2.687622 -1.4785767 4.0 -3.2493591c1.3123169 -1.7707825 3.2388306 -4.6666565 3.8740234 -7.375305c0.63513184 -2.7086792 -0.5944824 -6.5223083 -0.06298828 -8.876648c0.53149414 -2.3543396 2.178894 -3.4785767 3.2519531 -5.249344c1.0730591 -1.7707825 2.3114624 -3.4068298 3.1863403 -5.3753357c0.8748779 -1.9685059 2.0214233 -4.050308 2.0629883 -6.4356995c0.04156494 -2.385376 -2.0113525 -5.6679688 -1.8136597 -7.8766327c0.1977539 -2.208664 2.052063 -3.8337708 3.0 -5.3753357c0.947937 -1.5415497 2.145691 -2.020111 2.687683 -3.8740082c0.5419922 -1.8538971 1.1369019 -4.6036835 0.56427 -7.249344c-0.5725708 -2.6456757 -3.5830688 -6.207794 -4.0 -8.62468c-0.41687012 -2.4168854 1.0507812 -3.8556366 1.4987183 -5.8766327c0.447937 -2.020996 1.3451538 -3.843399 1.1889648 -6.249344c-0.15612793 -2.4059448 -0.76116943 -5.957138 -2.1259766 -8.186356c-1.3648071 -2.2292175 -3.8753052 -3.9702454 -6.0629883 -5.18898c-2.187683 -1.2187195 -4.5424194 -1.6964111 -7.0629883 -2.123352c-2.5205688 -0.42694092 -5.570862 0.64523315 -8.060364 -0.43832397c-2.489502 -1.0835571 -4.241028 -4.5109406 -6.876648 -6.0629883c-2.63562 -1.552063 -5.853882 -2.6972961 -8.937012 -3.2493439c-3.08313 -0.552063 -7.2908936 -0.094055176 -9.561707 -0.06298828c-2.270752 0.031051636 -2.69812 0.79089355 -4.0629883 0.24934387c-1.3648071 -0.54156494 -2.4072266 -2.4260712 -4.1259766 -3.4986877c-1.718689 -1.0726166 -3.8114624 -2.4160156 -6.1863403 -2.9370117c-2.374878 -0.5209961 -6.33374 -0.24102783 -8.062988 -0.1889801c-1.729248 0.05206299 -1.0936279 1.0844269 -2.312317 0.50131226c-1.21875 -0.5831146 -3.260315 -3.0936127 -5.0 -4.0c-1.7397461 -0.9063873 -2.9068604 -1.177597 -5.4383545 -1.438324c-2.5314941 -0.26071167 -7.3026733 -0.52186584 -9.75061 -0.12597656c-2.447998 0.39588928 -3.5100708 2.094925 -4.9370117 2.5013123c-1.4269409 0.40638733 -2.833374 0.19772339 -3.6246948 -0.06298828c-0.7913208 -0.26072693 -0.47766113 -1.1469879 -1.123352 -1.5013123c-0.6456909 -0.3543396 -2.1255493 -0.22923279 -2.7506714 -0.62467957c-0.6251221 -0.39544678 0.8543091 -1.3836365 -1.0 -1.7480316c-1.8543091 -0.36439514 -6.7926636 -1.2716522 -10.125977 -0.43832397c-3.333313 0.8333435 -7.6657715 4.448822 -9.874023 5.438324c-2.208191 0.98950195 -2.250183 0.7384033 -3.3753052 0.49868774c-1.1251221 -0.23971558 -1.4064026 -1.6557312 -3.3753357 -1.9370117c-1.9689636 -0.28126526 -5.479889 -0.78170776 -8.438324 0.24934387c-2.958435 1.0310669 -7.437439 4.9265137 -9.312347 5.9370117c-1.8748779 1.010498 -1.3018188 0.24060059 -1.9370117 0.12599182c-0.63516235 -0.114608765 -0.082214355 -0.6885376 -1.8739929 -0.81365967c-1.7917786 -0.12510681 -6.053833 -0.61416626 -8.876648 0.06300354c-2.8228455 0.67715454 -5.9252014 2.5205536 -8.060364 4.0c-2.1351929 1.4794312 -3.5214539 3.7305298 -4.7506714 4.8766327c-1.2292175 1.1461029 -0.64523315 1.5940552 -2.6246643 2.0c-1.9794312 0.40594482 -6.314514 -0.7309723 -9.251984 0.43569946c-2.937439 1.1666718 -5.5498657 4.0433044 -8.372681 6.5643005c-2.8228455 2.520996 -5.918213 5.5096283 -8.564301 8.561676c-2.6461182 3.052063 -5.520569 6.8862762 -7.3123474 9.750656c-1.7917786 2.8643951 -2.1780396 4.9776917 -3.438324 7.4356995c-1.2602844 2.4580078 -2.6443481 3.8849487 -4.123352 7.312332c-1.4790039 3.4273834 -3.5629883 11.6684265 -4.7506714 13.251968c-1.1876526 1.5835571 -1.2296448 -1.0004272 -2.3753052 -3.7506561c-1.1456909 -2.7502136 -2.8009644 -8.958878 -4.4986877 -12.750656c-1.6977234 -3.7917633 -2.979004 -6.031494 -5.687683 -10.0c-2.7086487 -3.9684906 -7.178894 -10.029739 -10.564301 -13.81102c-3.385376 -3.7812805 -7.143921 -6.7200317 -9.748016 -8.876633c-2.604126 -2.1566162 -3.5743713 -3.3547668 -5.876648 -4.0630035c-2.3022766 -0.70822144 -5.4890747 0.8757782 -7.9370117 -0.18634033c-2.447937 -1.0621185 -4.5634155 -4.457138 -6.7506714 -6.1863556c-2.1872253 -1.7292175 -3.1854553 -3.3762054 -6.3726807 -4.18898c-3.1872253 -0.81277466 -9.844269 -0.4689331 -12.750671 -0.68766785c-2.906372 -0.21871948 -3.1876526 0.042007446 -4.6876526 -0.6246643c-1.5 -0.66667175 -2.593628 -2.573059 -4.3123474 -3.3753357c-1.7187195 -0.80226135 -4.052063 -1.2090912 -6.0 -1.4383087c-1.947937 -0.22923279 -4.010498 -0.24978638 -5.6876526 0.06298828c-1.677185 0.31277466 -3.0835571 1.7821503 -4.3753357 1.8136444c-1.2917786 0.03149414 -2.073059 -0.9785614 -3.3753357 -1.6246643c-1.3022766 -0.64611816 -3.292633 -1.8145294 -4.438324 -2.2519684c-1.1456604 -0.43745422 -1.7169495 -0.06037903 -2.435669 -0.37271118c-0.71875 -0.31233215 -0.09536743 -1.2615967 -1.876648 -1.5013123c-1.7812805 -0.23971558 -7.0818176 -0.1767273 -8.811035 0.06298828c-1.7292175 0.23973083 -0.65789795 1.0420074 -1.5643005 1.3753357c-0.9063721 0.33332825 -3.2283325 0.21871948 -3.8740234 0.6246643c-0.6456604 0.40596008 0.6977234 1.5507507 0 1.8110352c-0.6977234 0.26026917 -2.6968384 0.1461029 -4.1863403 -0.24934387c-1.489502 -0.39546204 -1.8337708 -1.8735809 -4.7506714 -2.1233673c-2.91687 -0.24978638 -9.55249 -0.33332825 -12.750641 0.62467957c-3.1981506 0.95799255 -4.979889 4.2795258 -6.438324 5.123352c-1.458435 0.84384155 -0.54156494 -0.00831604 -2.3123474 -0.06036377c-1.770752 -0.05206299 -5.2397156 -1.1789093 -8.312317 -0.25196838c-3.0726166 0.9269409 -7.936142 4.7615967 -10.123367 5.8136444c-2.1872253 1.052063 -0.7602844 0.43614197 -3.0 0.49868774c-2.2397156 0.062561035 -7.5214386 -0.44662476 -10.438324 -0.12335205c-2.9168854 0.3232727 -5.0629883 1.1985931 -7.0629883 2.0629883c-2.0 0.86439514 -3.4785614 1.9151306 -4.9370117 3.123352c-1.458435 1.2082367 -1.6990356 3.4072723 -3.8136444 4.125992c-2.1146088 0.7187195 -5.988617 -0.28215027 -8.874008 0.18635559c-2.8853912 0.46850586 -6.2196045 1.3639526 -8.438324 2.6246643c-2.2187195 1.2607269 -3.7909088 3.09581 -4.8740234 4.939636c-1.0831146 1.8438263 -1.3123322 4.5507355 -1.6246643 6.123352c-0.31233215 1.5726166 -0.37445068 2.0205688 -0.24934387 3.3123474c0.12510681 1.2917633 0.56256104 3.0839844 1.0 4.4383087c0.43743896 1.3543396 1.4059448 2.5420074 1.6246643 3.6876678c0.21873474 1.1456757 0.31277466 1.9991302 -0.31233215 3.1863556c-0.6251068 1.1872253 -2.7611542 2.207779 -3.438324 3.9370117c-0.67715454 1.7292175 -0.6767273 4.688095 -0.6246643 6.4383087c0.05204773 1.7502289 0.5306244 2.4899445 0.9370117 4.0630035c0.40638733 1.5730438 0.7305298 3.8337708 1.5013123 5.3753204c0.7707672 1.541565 2.832016 2.4365692 3.123352 3.8740234c0.29133606 1.437439 -1.2401581 2.9173126 -1.3753204 4.750656c-0.13517761 1.8333282 -0.7484741 3.0516205 0.56430054 6.249344c1.3127747 3.1977234 5.989502 10.280838 7.312332 12.936996c1.3228302 2.6561737 0.36439514 0.98950195 0.62467957 3.0c0.26026917 2.010498 -0.5525055 5.7397156 0.93699646 9.062988c1.489502 3.3232727 6.3228455 8.5538025 8.0 10.876648c1.6771698 2.3228455 1.771225 2.0083008 2.0630035 3.0603638c0.29177856 1.052063 -0.780838 1.272522 -0.3123474 3.2519836c0.46850586 1.9794312 1.0608063 5.937439 3.1233673 8.624664c2.062561 2.6872253 7.0747986 5.8530273 9.251968 7.4986877c2.1771698 1.6456604 2.8009644 0.97943115 3.81102 2.3753357c1.0100708 1.395874 1.4470673 4.0 2.2493439 6.0c0.8022766 2.0 0.7830353 3.989502 2.5643005 6.0c1.7812805 2.010498 5.352585 4.677582 8.123367 6.0629883c2.7707825 1.385376 6.7720947 1.0931702 8.501312 2.2493286c1.7292175 1.156189 1.0406799 3.093628 1.8740082 4.687683c0.8333435 1.5940552 1.0944977 3.3035889 3.1259766 4.8766174c2.0315247 1.5730591 6.8547974 3.728363 9.063019 4.5617065c2.2082214 0.833313 3.2384033 0.06341553 4.1863403 0.43829346c0.947937 0.37490845 1.7615967 0.96765137 1.5013123 1.8110352c-0.26028442 0.8433838 -1.6981506 2.3429565 -3.0629883 3.2493591c-1.3648376 0.9063721 -2.9177551 0.8451233 -5.1259766 2.1889648c-2.2082214 1.3438416 -5.4671936 3.665802 -8.123367 5.8740234c-2.6561737 2.2082214 -4.8552094 4.5004272 -7.8136597 7.375305c-2.958435 2.8749084 -7.041107 6.3635254 -9.936996 9.874023c-2.8958893 3.510498 -5.3342133 7.334656 -7.438324 11.188995c-2.1041107 3.854309 -3.4991302 7.655731 -5.1863556 11.936981c-1.6872253 4.2812805 -3.7388458 9.3862915 -4.9370117 13.750671c-1.1981506 4.36438 -1.772522 7.4772644 -2.2519684 12.435699c-0.47943115 4.958435 -0.4474945 13.741913 -0.6246643 17.314941c-0.1771698 3.573059 0.21784973 2.404663 -0.43832397 4.1233826c-0.65615845 1.7187195 -1.7384033 4.293091 -3.4986877 6.188965c-1.7602844 1.8959045 -4.4173126 2.9365845 -7.0629883 5.1863403c-2.6456757 2.2497864 -5.957138 5.2812805 -8.81102 8.312347c-2.853897 3.031067 -5.218292 5.3324585 -8.312347 9.874023c-3.09404 4.541565 -7.3140717 10.843842 -10.251968 17.375336c-2.9378815 6.531494 -5.8648224 15.261566 -7.3753204 21.81363c-1.510498 6.5520325 -1.5835571 9.394562 -1.6876678 17.498688c-0.10411072 8.104126 -0.23927307 21.083984 1.0629883 31.125977c1.3022766 10.041992 2.5839996 18.438354 6.750656 29.125977c4.1666718 10.687683 10.457581 24.729248 18.249344 35.0c7.7917786 10.270813 18.167984 18.916443 28.501312 26.624695c10.3333435 7.708252 27.26947 14.958008 33.498688 19.624695c6.2292175 4.666626 2.8035889 4.9588623 3.876648 8.375305c1.0730591 3.4164429 0.88494873 6.988159 2.561676 12.123352c1.6767273 5.135193 4.2384033 12.729248 7.4986877 18.687683c3.2602844 5.958435 7.1981506 11.63562 12.062988 17.062988c4.8648376 5.427368 10.657043 10.917725 17.125977 15.501282c6.4689636 4.583557 13.437897 8.458435 21.687683 12.0c8.249786 3.541565 18.84253 6.9160156 27.811005 9.24939c8.968506 2.333313 18.989502 3.8236694 26.0 4.7506104c7.010498 0.9269409 7.5210266 0.6654053 16.063019 0.81103516c8.541992 0.14569092 25.251526 0.13562012 35.188965 0.06298828c9.937439 -0.072631836 17.446198 -0.1237793 24.4357 -0.49865723c6.989502 -0.37487793 11.157471 -0.7506714 17.501312 -1.7506714c6.3438416 -1.0 11.051178 -1.2388306 20.561676 -4.2493286c9.510498 -3.010498 26.324158 -8.344727 36.50128 -13.81366c10.177185 -5.468933 17.999146 -12.385376 24.561707 -19.0c6.562561 -6.614624 10.761597 -12.802307 14.81366 -20.687683c4.052063 -7.885376 7.7698975 -20.479004 9.498657 -26.624634c1.7288208 -6.145691 -0.1885376 -7.9991455 0.87402344 -10.24939c1.062561 -2.250183 1.7720947 -1.272522 5.501343 -3.2519531c3.729187 -1.9794312 9.1657715 -3.5205688 16.874023 -8.624695c7.708191 -5.104065 21.63556 -14.947937 29.375305 -22.0c7.739746 -7.052002 12.489929 -13.78125 17.062988 -20.312317c4.573059 -6.531067 7.520996 -12.655273 10.375305 -18.874023c2.85437 -6.218689 5.0109863 -11.938293 6.7506714 -18.438293c1.7397461 -6.5 2.7607422 -13.853455 3.687683 -20.561707c0.9269409 -6.708191 1.6242065 -13.041565 1.8740234 -19.687622c0.24975586 -6.646118 0.41644287 -14.126465 -0.3753662 -20.189026c-0.79174805 -6.0625305 -2.7606812 -10.988586 -4.375305 -16.18634c-1.614624 -5.1977234 -3.052063 -10.302246 -5.312317 -15.0c-2.260315 -4.6977234 -5.4785767 -9.113281 -8.24939 -13.18634c-2.770752 -4.073059 -5.520996 -7.9912415 -8.375305 -11.251953c-2.854309 -3.2607422 -6.1881104 -6.177185 -8.750671 -8.312347c-2.562561 -2.1351624 -4.541565 -2.3740234 -6.624634 -4.4986877c-2.08313 -2.1246643 -4.8219604 -5.7178345 -5.8740234 -8.249359c-1.052063 -2.5314941 -0.30273438 -4.1478577 -0.4383545 -6.9396057c-0.13555908 -2.7917786 -0.16705322 -6.3945923 -0.37530518 -9.811035c-0.20825195 -3.4164429 -0.14477539 -6.625122 -0.87402344 -10.687653c-0.729187 -4.062561 -2.1159058 -9.322845 -3.5012817 -13.687683c-1.385437 -4.3648376 -2.3320312 -7.7200317 -4.811035 -12.501312c-2.479004 -4.7812805 -6.8858643 -11.842957 -10.062988 -16.18634c-3.177185 -4.3434143 -6.073059 -6.9470825 -9.0 -9.874023c-2.926941 -2.926941 -5.7283325 -5.3022766 -8.561707 -7.6876526c-2.833313 -2.3854065 -5.9172974 -4.8849487 -8.438293 -6.624695c-2.520996 -1.7397156 -5.187683 -2.9177551 -6.687683 -3.8136292c-1.5 -0.89590454 -2.1871948 -0.9781189 -2.312317 -1.561676c-0.12512207 -0.5835571 0.73883057 -1.4396362 1.5616455 -1.9396362c0.822876 -0.5 1.8438721 -0.5083313 3.3753662 -1.0603638z" fill-rule="nonzero"></path><path stroke="#000000" stroke-width="2.0" stroke-linejoin="round" stroke-linecap="butt" d="m569.17194 335.3517c1.5314941 -0.552063 4.1259766 -1.4707031 5.8135986 -2.2519836c1.6876831 -0.7812805 3.125122 -1.1964111 4.312378 -2.4356995c1.1871948 -1.2392578 2.1132812 -3.447937 2.8110352 -5.0c0.6976929 -1.5520325 0.20861816 -3.2182617 1.3753052 -4.312317c1.166687 -1.0940552 3.4370117 -1.2620239 5.624695 -2.2519836c2.187622 -0.9899292 5.615906 -2.573059 7.5012817 -3.6876526c1.885376 -1.114624 2.5092163 -0.8753357 3.8110352 -3.0c1.3018188 -2.1246643 3.052063 -7.737976 4.0 -9.748047c0.947937 -2.0100403 0.4689331 -1.2497864 1.6876831 -2.312317c1.218689 -1.062561 3.8118896 -2.5314941 5.624634 -4.0629883c1.8128052 -1.5314941 3.876648 -3.54245 5.251953 -5.126007c1.3753662 -1.5835571 2.229248 -2.8027039 3.0 -4.375305c0.770813 -1.5726318 1.4165039 -3.6023865 1.6246948 -5.0603943c0.20825195 -1.4579773 -0.81274414 -2.5520325 -0.37530518 -3.6876526c0.43743896 -1.1356201 1.833313 -2.0634155 3.0 -3.1259766c1.166626 -1.062561 2.687622 -1.4785767 4.0 -3.2493591c1.3123169 -1.7707825 3.2388306 -4.6666565 3.8740234 -7.375305c0.63513184 -2.7086792 -0.5944824 -6.5223083 -0.06298828 -8.876648c0.53149414 -2.3543396 2.178894 -3.4785767 3.2519531 -5.249344c1.0730591 -1.7707825 2.3114624 -3.4068298 3.1863403 -5.3753357c0.8748779 -1.9685059 2.0214233 -4.050308 2.0629883 -6.4356995c0.04156494 -2.385376 -2.0113525 -5.6679688 -1.8136597 -7.8766327c0.1977539 -2.208664 2.052063 -3.8337708 3.0 -5.3753357c0.947937 -1.5415497 2.145691 -2.020111 2.687683 -3.8740082c0.5419922 -1.8538971 1.1369019 -4.6036835 0.56427 -7.249344c-0.5725708 -2.6456757 -3.5830688 -6.207794 -4.0 -8.62468c-0.41687012 -2.4168854 1.0507812 -3.8556366 1.4987183 -5.8766327c0.447937 -2.020996 1.3451538 -3.843399 1.1889648 -6.249344c-0.15612793 -2.4059448 -0.76116943 -5.957138 -2.1259766 -8.186356c-1.3648071 -2.2292175 -3.8753052 -3.9702454 -6.0629883 -5.18898c-2.187683 -1.2187195 -4.5424194 -1.6964111 -7.0629883 -2.123352c-2.5205688 -0.42694092 -5.570862 0.64523315 -8.060364 -0.43832397c-2.489502 -1.0835571 -4.241028 -4.5109406 -6.876648 -6.0629883c-2.63562 -1.552063 -5.853882 -2.6972961 -8.937012 -3.2493439c-3.08313 -0.552063 -7.2908936 -0.094055176 -9.561707 -0.06298828c-2.270752 0.031051636 -2.69812 0.79089355 -4.0629883 0.24934387c-1.3648071 -0.54156494 -2.4072266 -2.4260712 -4.1259766 -3.4986877c-1.718689 -1.0726166 -3.8114624 -2.4160156 -6.1863403 -2.9370117c-2.374878 -0.5209961 -6.33374 -0.24102783 -8.062988 -0.1889801c-1.729248 0.05206299 -1.0936279 1.0844269 -2.312317 0.50131226c-1.21875 -0.5831146 -3.260315 -3.0936127 -5.0 -4.0c-1.7397461 -0.9063873 -2.9068604 -1.177597 -5.4383545 -1.438324c-2.5314941 -0.26071167 -7.3026733 -0.52186584 -9.75061 -0.12597656c-2.447998 0.39588928 -3.5100708 2.094925 -4.9370117 2.5013123c-1.4269409 0.40638733 -2.833374 0.19772339 -3.6246948 -0.06298828c-0.7913208 -0.26072693 -0.47766113 -1.1469879 -1.123352 -1.5013123c-0.6456909 -0.3543396 -2.1255493 -0.22923279 -2.7506714 -0.62467957c-0.6251221 -0.39544678 0.8543091 -1.3836365 -1.0 -1.7480316c-1.8543091 -0.36439514 -6.7926636 -1.2716522 -10.125977 -0.43832397c-3.333313 0.8333435 -7.6657715 4.448822 -9.874023 5.438324c-2.208191 0.98950195 -2.250183 0.7384033 -3.3753052 0.49868774c-1.1251221 -0.23971558 -1.4064026 -1.6557312 -3.3753357 -1.9370117c-1.9689636 -0.28126526 -5.479889 -0.78170776 -8.438324 0.24934387c-2.958435 1.0310669 -7.437439 4.9265137 -9.312347 5.9370117c-1.8748779 1.010498 -1.3018188 0.24060059 -1.9370117 0.12599182c-0.63516235 -0.114608765 -0.082214355 -0.6885376 -1.8739929 -0.81365967c-1.7917786 -0.12510681 -6.053833 -0.61416626 -8.876648 0.06300354c-2.8228455 0.67715454 -5.9252014 2.5205536 -8.060364 4.0c-2.1351929 1.4794312 -3.5214539 3.7305298 -4.7506714 4.8766327c-1.2292175 1.1461029 -0.64523315 1.5940552 -2.6246643 2.0c-1.9794312 0.40594482 -6.314514 -0.7309723 -9.251984 0.43569946c-2.937439 1.1666718 -5.5498657 4.0433044 -8.372681 6.5643005c-2.8228455 2.520996 -5.918213 5.5096283 -8.564301 8.561676c-2.6461182 3.052063 -5.520569 6.8862762 -7.3123474 9.750656c-1.7917786 2.8643951 -2.1780396 4.9776917 -3.438324 7.4356995c-1.2602844 2.4580078 -2.6443481 3.8849487 -4.123352 7.312332c-1.4790039 3.4273834 -3.5629883 11.6684265 -4.7506714 13.251968c-1.1876526 1.5835571 -1.2296448 -1.0004272 -2.3753052 -3.7506561c-1.1456909 -2.7502136 -2.8009644 -8.958878 -4.4986877 -12.750656c-1.6977234 -3.7917633 -2.979004 -6.031494 -5.687683 -10.0c-2.7086487 -3.9684906 -7.178894 -10.029739 -10.564301 -13.81102c-3.385376 -3.7812805 -7.143921 -6.7200317 -9.748016 -8.876633c-2.604126 -2.1566162 -3.5743713 -3.3547668 -5.876648 -4.0630035c-2.3022766 -0.70822144 -5.4890747 0.8757782 -7.9370117 -0.18634033c-2.447937 -1.0621185 -4.5634155 -4.457138 -6.7506714 -6.1863556c-2.1872253 -1.7292175 -3.1854553 -3.3762054 -6.3726807 -4.18898c-3.1872253 -0.81277466 -9.844269 -0.4689331 -12.750671 -0.68766785c-2.906372 -0.21871948 -3.1876526 0.042007446 -4.6876526 -0.6246643c-1.5 -0.66667175 -2.593628 -2.573059 -4.3123474 -3.3753357c-1.7187195 -0.80226135 -4.052063 -1.2090912 -6.0 -1.4383087c-1.947937 -0.22923279 -4.010498 -0.24978638 -5.6876526 0.06298828c-1.677185 0.31277466 -3.0835571 1.7821503 -4.3753357 1.8136444c-1.2917786 0.03149414 -2.073059 -0.9785614 -3.3753357 -1.6246643c-1.3022766 -0.64611816 -3.292633 -1.8145294 -4.438324 -2.2519684c-1.1456604 -0.43745422 -1.7169495 -0.06037903 -2.435669 -0.37271118c-0.71875 -0.31233215 -0.09536743 -1.2615967 -1.876648 -1.5013123c-1.7812805 -0.23971558 -7.0818176 -0.1767273 -8.811035 0.06298828c-1.7292175 0.23973083 -0.65789795 1.0420074 -1.5643005 1.3753357c-0.9063721 0.33332825 -3.2283325 0.21871948 -3.8740234 0.6246643c-0.6456604 0.40596008 0.6977234 1.5507507 0 1.8110352c-0.6977234 0.26026917 -2.6968384 0.1461029 -4.1863403 -0.24934387c-1.489502 -0.39546204 -1.8337708 -1.8735809 -4.7506714 -2.1233673c-2.91687 -0.24978638 -9.55249 -0.33332825 -12.750641 0.62467957c-3.1981506 0.95799255 -4.979889 4.2795258 -6.438324 5.123352c-1.458435 0.84384155 -0.54156494 -0.00831604 -2.3123474 -0.06036377c-1.770752 -0.05206299 -5.2397156 -1.1789093 -8.312317 -0.25196838c-3.0726166 0.9269409 -7.936142 4.7615967 -10.123367 5.8136444c-2.1872253 1.052063 -0.7602844 0.43614197 -3.0 0.49868774c-2.2397156 0.062561035 -7.5214386 -0.44662476 -10.438324 -0.12335205c-2.9168854 0.3232727 -5.0629883 1.1985931 -7.0629883 2.0629883c-2.0 0.86439514 -3.4785614 1.9151306 -4.9370117 3.123352c-1.458435 1.2082367 -1.6990356 3.4072723 -3.8136444 4.125992c-2.1146088 0.7187195 -5.988617 -0.28215027 -8.874008 0.18635559c-2.8853912 0.46850586 -6.2196045 1.3639526 -8.438324 2.6246643c-2.2187195 1.2607269 -3.7909088 3.09581 -4.8740234 4.939636c-1.0831146 1.8438263 -1.3123322 4.5507355 -1.6246643 6.123352c-0.31233215 1.5726166 -0.37445068 2.0205688 -0.24934387 3.3123474c0.12510681 1.2917633 0.56256104 3.0839844 1.0 4.4383087c0.43743896 1.3543396 1.4059448 2.5420074 1.6246643 3.6876678c0.21873474 1.1456757 0.31277466 1.9991302 -0.31233215 3.1863556c-0.6251068 1.1872253 -2.7611542 2.207779 -3.438324 3.9370117c-0.67715454 1.7292175 -0.6767273 4.688095 -0.6246643 6.4383087c0.05204773 1.7502289 0.5306244 2.4899445 0.9370117 4.0630035c0.40638733 1.5730438 0.7305298 3.8337708 1.5013123 5.3753204c0.7707672 1.541565 2.832016 2.4365692 3.123352 3.8740234c0.29133606 1.437439 -1.2401581 2.9173126 -1.3753204 4.750656c-0.13517761 1.8333282 -0.7484741 3.0516205 0.56430054 6.249344c1.3127747 3.1977234 5.989502 10.280838 7.312332 12.936996c1.3228302 2.6561737 0.36439514 0.98950195 0.62467957 3.0c0.26026917 2.010498 -0.5525055 5.7397156 0.93699646 9.062988c1.489502 3.3232727 6.3228455 8.5538025 8.0 10.876648c1.6771698 2.3228455 1.771225 2.0083008 2.0630035 3.0603638c0.29177856 1.052063 -0.780838 1.272522 -0.3123474 3.2519836c0.46850586 1.9794312 1.0608063 5.937439 3.1233673 8.624664c2.062561 2.6872253 7.0747986 5.8530273 9.251968 7.4986877c2.1771698 1.6456604 2.8009644 0.97943115 3.81102 2.3753357c1.0100708 1.395874 1.4470673 4.0 2.2493439 6.0c0.8022766 2.0 0.7830353 3.989502 2.5643005 6.0c1.7812805 2.010498 5.352585 4.677582 8.123367 6.0629883c2.7707825 1.385376 6.7720947 1.0931702 8.501312 2.2493286c1.7292175 1.156189 1.0406799 3.093628 1.8740082 4.687683c0.8333435 1.5940552 1.0944977 3.3035889 3.1259766 4.8766174c2.0315247 1.5730591 6.8547974 3.728363 9.063019 4.5617065c2.2082214 0.833313 3.2384033 0.06341553 4.1863403 0.43829346c0.947937 0.37490845 1.7615967 0.96765137 1.5013123 1.8110352c-0.26028442 0.8433838 -1.6981506 2.3429565 -3.0629883 3.2493591c-1.3648376 0.9063721 -2.9177551 0.8451233 -5.1259766 2.1889648c-2.2082214 1.3438416 -5.4671936 3.665802 -8.123367 5.8740234c-2.6561737 2.2082214 -4.8552094 4.5004272 -7.8136597 7.375305c-2.958435 2.8749084 -7.041107 6.3635254 -9.936996 9.874023c-2.8958893 3.510498 -5.3342133 7.334656 -7.438324 11.188995c-2.1041107 3.854309 -3.4991302 7.655731 -5.1863556 11.936981c-1.6872253 4.2812805 -3.7388458 9.3862915 -4.9370117 13.750671c-1.1981506 4.36438 -1.772522 7.4772644 -2.2519684 12.435699c-0.47943115 4.958435 -0.4474945 13.741913 -0.6246643 17.314941c-0.1771698 3.573059 0.21784973 2.404663 -0.43832397 4.1233826c-0.65615845 1.7187195 -1.7384033 4.293091 -3.4986877 6.188965c-1.7602844 1.8959045 -4.4173126 2.9365845 -7.0629883 5.1863403c-2.6456757 2.2497864 -5.957138 5.2812805 -8.81102 8.312347c-2.853897 3.031067 -5.218292 5.3324585 -8.312347 9.874023c-3.09404 4.541565 -7.3140717 10.843842 -10.251968 17.375336c-2.9378815 6.531494 -5.8648224 15.261566 -7.3753204 21.81363c-1.510498 6.5520325 -1.5835571 9.394562 -1.6876678 17.498688c-0.10411072 8.104126 -0.23927307 21.083984 1.0629883 31.125977c1.3022766 10.041992 2.5839996 18.438354 6.750656 29.125977c4.1666718 10.687683 10.457581 24.729248 18.249344 35.0c7.7917786 10.270813 18.167984 18.916443 28.501312 26.624695c10.3333435 7.708252 27.26947 14.958008 33.498688 19.624695c6.2292175 4.666626 2.8035889 4.9588623 3.876648 8.375305c1.0730591 3.4164429 0.88494873 6.988159 2.561676 12.123352c1.6767273 5.135193 4.2384033 12.729248 7.4986877 18.687683c3.2602844 5.958435 7.1981506 11.63562 12.062988 17.062988c4.8648376 5.427368 10.657043 10.917725 17.125977 15.501282c6.4689636 4.583557 13.437897 8.458435 21.687683 12.0c8.249786 3.541565 18.84253 6.9160156 27.811005 9.24939c8.968506 2.333313 18.989502 3.8236694 26.0 4.7506104c7.010498 0.9269409 7.5210266 0.6654053 16.063019 0.81103516c8.541992 0.14569092 25.251526 0.13562012 35.188965 0.06298828c9.937439 -0.072631836 17.446198 -0.1237793 24.4357 -0.49865723c6.989502 -0.37487793 11.157471 -0.7506714 17.501312 -1.7506714c6.3438416 -1.0 11.051178 -1.2388306 20.561676 -4.2493286c9.510498 -3.010498 26.324158 -8.344727 36.50128 -13.81366c10.177185 -5.468933 17.999146 -12.385376 24.561707 -19.0c6.562561 -6.614624 10.761597 -12.802307 14.81366 -20.687683c4.052063 -7.885376 7.7698975 -20.479004 9.498657 -26.624634c1.7288208 -6.145691 -0.1885376 -7.9991455 0.87402344 -10.24939c1.062561 -2.250183 1.7720947 -1.272522 5.501343 -3.2519531c3.729187 -1.9794312 9.1657715 -3.5205688 16.874023 -8.624695c7.708191 -5.104065 21.63556 -14.947937 29.375305 -22.0c7.739746 -7.052002 12.489929 -13.78125 17.062988 -20.312317c4.573059 -6.531067 7.520996 -12.655273 10.375305 -18.874023c2.85437 -6.218689 5.0109863 -11.938293 6.7506714 -18.438293c1.7397461 -6.5 2.7607422 -13.853455 3.687683 -20.561707c0.9269409 -6.708191 1.6242065 -13.041565 1.8740234 -19.687622c0.24975586 -6.646118 0.41644287 -14.126465 -0.3753662 -20.189026c-0.79174805 -6.0625305 -2.7606812 -10.988586 -4.375305 -16.18634c-1.614624 -5.1977234 -3.052063 -10.302246 -5.312317 -15.0c-2.260315 -4.6977234 -5.4785767 -9.113281 -8.24939 -13.18634c-2.770752 -4.073059 -5.520996 -7.9912415 -8.375305 -11.251953c-2.854309 -3.2607422 -6.1881104 -6.177185 -8.750671 -8.312347c-2.562561 -2.1351624 -4.541565 -2.3740234 -6.624634 -4.4986877c-2.08313 -2.1246643 -4.8219604 -5.7178345 -5.8740234 -8.249359c-1.052063 -2.5314941 -0.30273438 -4.1478577 -0.4383545 -6.9396057c-0.13555908 -2.7917786 -0.16705322 -6.3945923 -0.37530518 -9.811035c-0.20825195 -3.4164429 -0.14477539 -6.625122 -0.87402344 -10.687653c-0.729187 -4.062561 -2.1159058 -9.322845 -3.5012817 -13.687683c-1.385437 -4.3648376 -2.3320312 -7.7200317 -4.811035 -12.501312c-2.479004 -4.7812805 -6.8858643 -11.842957 -10.062988 -16.18634c-3.177185 -4.3434143 -6.073059 -6.9470825 -9.0 -9.874023c-2.926941 -2.926941 -5.7283325 -5.3022766 -8.561707 -7.6876526c-2.833313 -2.3854065 -5.9172974 -4.8849487 -8.438293 -6.624695c-2.520996 -1.7397156 -5.187683 -2.9177551 -6.687683 -3.8136292c-1.5 -0.89590454 -2.1871948 -0.9781189 -2.312317 -1.561676c-0.12512207 -0.5835571 0.73883057 -1.4396362 1.5616455 -1.9396362c0.822876 -0.5 1.8438721 -0.5083313 3.3753662 -1.0603638z" fill-rule="nonzero"></path><path fill="#274e13" d="m386.3859 281.07416c4.5489807 0.9125061 7.668396 -4.9597473 10.771637 -8.21521c3.103241 -3.2554626 6.2353516 -6.54068 7.8477783 -11.317596c1.6124268 -4.776886 3.1045532 -9.919937 1.8267822 -17.343826c-1.2778015 -7.423889 -5.020996 -18.771652 -9.493439 -27.199478c-4.4724426 -8.427811 -14.207367 -20.385391 -17.341217 -23.367447c-3.13385 -2.982071 -0.85302734 4.2427826 -1.4619446 5.475067c-0.60891724 1.2322845 -1.4461975 1.6294861 -2.1915894 1.9186249c-0.74542236 0.28915405 -1.5660706 0.19685364 -2.2808533 -0.18371582c-0.7147827 -0.38058472 1.0196838 1.1710358 -2.0078735 -2.0997467c-3.0275574 -3.2707672 -13.327637 -15.395447 -16.15747 -17.524933c-2.829834 -2.129486 -0.60891724 3.515747 -0.8215332 4.7480316c-0.21258545 1.2322845 -0.0892334 1.778656 -0.45407104 2.6456757c-0.36480713 0.86701965 -1.0957947 2.191162 -1.7348938 2.556427c-0.6390991 0.3652649 -1.5214539 -0.06036377 -2.0997314 -0.3648224c-0.5783081 -0.30447388 0.19683838 0.120285034 -1.3700867 -1.4619446c-1.566925 -1.5822449 -5.6583557 -5.9168854 -8.031494 -8.031494c-2.3731384 -2.114624 -5.0966797 -4.6255493 -6.207367 -4.6561737c-1.1106567 -0.03062439 -0.25894165 3.103241 -0.45669556 4.4724426c-0.19772339 1.3692017 -0.15179443 2.7537231 -0.7296448 3.7427826c-0.57785034 0.98905945 -1.4750671 2.4501343 -2.7375183 2.1916046c-1.2624817 -0.25852966 -2.342102 -1.8565216 -4.8372803 -3.7427826c-2.4951782 -1.8862762 -7.4409485 -5.840332 -10.13385 -7.574814c-2.6929321 -1.7344666 -5.202118 -2.786087 -6.0236206 -2.832016c-0.8215332 -0.045928955 0.74450684 1.8718262 1.0944824 2.556427c0.34994507 0.68460083 0.8377075 0.57743835 1.005249 1.551178c0.1675415 0.9737549 0.2585144 3.150055 0 4.2913513c-0.25854492 1.1412811 -0.60806274 2.4348145 -1.551178 2.556427c-0.94314575 0.12161255 -1.9015808 -0.716095 -4.1076355 -1.8267822c-2.2060242 -1.110672 -5.660095 -3.3770752 -9.128601 -4.837265c-3.4685059 -1.4601898 -9.735352 -3.7261505 -11.682404 -3.9238892c-1.9470825 -0.19772339 -0.38015747 1.9772644 0 2.7375336c0.38012695 0.7602844 1.7182922 1.2003632 2.2808228 1.8241577c0.56256104 0.62379456 0.91207886 1.0056763 1.0945129 1.9186249c0.18240356 0.9129486 0.15179443 2.7375336 0 3.5590668c-0.15179443 0.82151794 -0.3022766 1.2484589 -0.9107666 1.3700714c-0.60849 0.12161255 -0.53411865 0.12030029 -2.7401733 -0.6404114c-2.2060242 -0.7607269 -6.890625 -2.9046478 -10.496063 -3.9238892c-3.6054077 -1.0192566 -9.462799 -2.2069092 -11.136475 -2.1916046c-1.6736755 0.015304565 0.53149414 1.5380554 1.0944824 2.2834625c0.5629883 0.7454071 1.9028931 0.8958893 2.2834778 2.18898c0.3805542 1.2930908 0.6237793 4.5957947 0 5.5695496c-0.6238098 0.9737549 -0.7152405 0.88145447 -3.7427979 0.27296448c-3.0275574 -0.60847473 -9.752396 -3.345581 -14.422562 -3.923874c-4.670166 -0.5783081 -12.305344 -0.8390198 -13.598434 0.4540558c-1.2930756 1.2930908 6.3574066 5.7830353 5.839905 7.304474c-0.51750183 1.5214233 -4.4116364 1.5656128 -8.944885 1.8241425c-4.533249 0.25852966 -15.835953 -1.5507507 -18.254593 -0.27296448c-2.4186401 1.277771 2.41951 5.125107 3.7427826 7.939636c1.3232727 2.8145142 3.3451385 6.3307037 4.1968536 8.9474945c0.8516998 2.616806 2.5411224 5.7799683 0.91337585 6.7532806c-1.6277313 0.97332764 -9.706024 -2.237091 -10.679779 -0.91337585c-0.9737549 1.3237 2.0682373 5.6456604 4.837265 8.855637c2.7690277 3.2099762 10.513992 8.091873 11.776901 10.404205c1.2629089 2.3123322 -2.373581 2.937439 -4.199478 3.469818c-1.8258972 0.5323639 -5.43219 -0.44270325 -6.755905 -0.275589c-1.3237 0.167099 -3.0879211 -1.0192566 -1.1863403 1.2782135c1.9015656 2.2974548 9.68985 9.646545 12.595795 12.506561c2.9059448 2.8600159 4.003067 3.5735016 4.8398895 4.653549c0.83683777 1.0800476 0.36395264 1.324585 0.18110657 1.8267517c-0.18284607 0.50219727 0.22790527 0.97332764 -1.2782135 1.1863708c-1.5061188 0.2130127 -6.3136444 -0.029754639 -7.7585297 0.09185791c-1.4448853 0.12161255 -2.3105927 -0.86834717 -0.9107666 0.63778687c1.399826 1.506134 5.6894226 5.5691223 9.309708 8.398956c3.6203003 2.829834 11.028 6.7392883 12.412079 8.580048c1.384079 1.8407593 -2.4190674 2.0236206 -4.107605 2.464569c-1.6885376 0.4409485 -5.065628 -0.19903564 -6.0236206 0.18109131c-0.9580078 0.38015747 -1.7480316 0.48687744 0.275589 2.099762c2.0236206 1.612854 8.915131 5.8127747 11.866135 7.577423c2.951004 1.7646484 3.8775177 1.9912415 5.839905 3.010498c1.9623871 1.0192261 4.595352 2.328949 5.934372 3.1049805c1.3390198 0.7760315 1.8718262 0.98861694 2.0997314 1.551178c0.22790527 0.56256104 0.74365234 1.3223877 -0.7322693 1.8241577c-1.4759521 0.5017395 -6.556427 0.942688 -8.123367 1.1863403c-1.566925 0.24365234 -1.3543243 -0.13516235 -1.2782135 0.27560425c0.07611084 0.41073608 -1.384079 0.72875977 1.734909 2.1889648c3.1189728 1.4602051 12.841202 5.1421814 16.978989 6.572174c4.1378174 1.4300232 6.433075 1.1557312 7.8477783 2.0078735c1.4147034 0.85214233 1.4921265 2.0857544 0.6404114 3.1049805c-0.8516846 1.0192566 -4.776886 2.2651062 -5.750641 3.010498c-0.9737549 0.74542236 -2.1609802 0.7314148 -0.09185791 1.4619446c2.0691223 0.7305298 7.608032 2.2673035 12.506561 2.9212646c4.8984985 0.6539917 13.842072 0.22705078 16.884521 1.0026245c3.0424194 0.77560425 1.9326172 2.4186401 1.3700562 3.65094c-0.5625305 1.2322693 -3.8783875 2.829834 -4.745392 3.7427673c-0.8670349 0.91293335 -1.4300232 1.4457703 -0.45669556 1.7348938c0.97332764 0.28915405 1.7480164 0.4107666 6.29657 0c4.548584 -0.41073608 13.5555725 -0.8670044 20.994751 -2.4645386c7.439209 -1.5975647 16.642609 -3.3477783 23.640442 -7.120758c6.9978027 -3.7729492 14.071747 -10.481628 18.346436 -15.517059c4.274719 -5.035431 7.118988 -11.150909 7.3018494 -14.695526c0.18286133 -3.5446167 -1.8538818 -2.5559998 -6.204712 -6.572174c-4.35083 -4.016205 -13.236664 -12.215668 -19.900269 -17.524933c-6.6636047 -5.3092957 -12.992126 -9.584442 -20.08136 -14.330719c-7.0892334 -4.746277 -14.726166 -9.537613 -22.454071 -14.146988c-7.7279053 -4.6093597 -17.14392 -9.751526 -23.913391 -13.509186c-6.76947 -3.7576447 -13.584442 -7.1351624 -16.7034 -9.036743c-3.118988 -1.9015656 -3.835968 -2.6010437 -2.010498 -2.372696c1.8254395 0.22834778 3.1810913 -0.21260071 12.963226 3.7427826c9.782166 3.9553833 35.887146 15.486877 45.729675 19.989502c9.842529 4.5026245 5.506134 2.3101501 13.32547 7.026245c7.819336 4.716095 25.238403 15.443558 33.590546 21.27034c8.352142 5.826782 11.973297 12.777771 16.522308 13.690277z" fill-rule="nonzero"></path><path stroke="#000000" stroke-width="2.0" stroke-linejoin="round" stroke-linecap="butt" d="m386.3859 281.07416c4.5489807 0.9125061 7.668396 -4.9597473 10.771637 -8.21521c3.103241 -3.2554626 6.2353516 -6.54068 7.8477783 -11.317596c1.6124268 -4.776886 3.1045532 -9.919937 1.8267822 -17.343826c-1.2778015 -7.423889 -5.020996 -18.771652 -9.493439 -27.199478c-4.4724426 -8.427811 -14.207367 -20.385391 -17.341217 -23.367447c-3.13385 -2.982071 -0.85302734 4.2427826 -1.4619446 5.475067c-0.60891724 1.2322845 -1.4461975 1.6294861 -2.1915894 1.9186249c-0.74542236 0.28915405 -1.5660706 0.19685364 -2.2808533 -0.18371582c-0.7147827 -0.38058472 1.0196838 1.1710358 -2.0078735 -2.0997467c-3.0275574 -3.2707672 -13.327637 -15.395447 -16.15747 -17.524933c-2.829834 -2.129486 -0.60891724 3.515747 -0.8215332 4.7480316c-0.21258545 1.2322845 -0.0892334 1.778656 -0.45407104 2.6456757c-0.36480713 0.86701965 -1.0957947 2.191162 -1.7348938 2.556427c-0.6390991 0.3652649 -1.5214539 -0.06036377 -2.0997314 -0.3648224c-0.5783081 -0.30447388 0.19683838 0.120285034 -1.3700867 -1.4619446c-1.566925 -1.5822449 -5.6583557 -5.9168854 -8.031494 -8.031494c-2.3731384 -2.114624 -5.0966797 -4.6255493 -6.207367 -4.6561737c-1.1106567 -0.03062439 -0.25894165 3.103241 -0.45669556 4.4724426c-0.19772339 1.3692017 -0.15179443 2.7537231 -0.7296448 3.7427826c-0.57785034 0.98905945 -1.4750671 2.4501343 -2.7375183 2.1916046c-1.2624817 -0.25852966 -2.342102 -1.8565216 -4.8372803 -3.7427826c-2.4951782 -1.8862762 -7.4409485 -5.840332 -10.13385 -7.574814c-2.6929321 -1.7344666 -5.202118 -2.786087 -6.0236206 -2.832016c-0.8215332 -0.045928955 0.74450684 1.8718262 1.0944824 2.556427c0.34994507 0.68460083 0.8377075 0.57743835 1.005249 1.551178c0.1675415 0.9737549 0.2585144 3.150055 0 4.2913513c-0.25854492 1.1412811 -0.60806274 2.4348145 -1.551178 2.556427c-0.94314575 0.12161255 -1.9015808 -0.716095 -4.1076355 -1.8267822c-2.2060242 -1.110672 -5.660095 -3.3770752 -9.128601 -4.837265c-3.4685059 -1.4601898 -9.735352 -3.7261505 -11.682404 -3.9238892c-1.9470825 -0.19772339 -0.38015747 1.9772644 0 2.7375336c0.38012695 0.7602844 1.7182922 1.2003632 2.2808228 1.8241577c0.56256104 0.62379456 0.91207886 1.0056763 1.0945129 1.9186249c0.18240356 0.9129486 0.15179443 2.7375336 0 3.5590668c-0.15179443 0.82151794 -0.3022766 1.2484589 -0.9107666 1.3700714c-0.60849 0.12161255 -0.53411865 0.12030029 -2.7401733 -0.6404114c-2.2060242 -0.7607269 -6.890625 -2.9046478 -10.496063 -3.9238892c-3.6054077 -1.0192566 -9.462799 -2.2069092 -11.136475 -2.1916046c-1.6736755 0.015304565 0.53149414 1.5380554 1.0944824 2.2834625c0.5629883 0.7454071 1.9028931 0.8958893 2.2834778 2.18898c0.3805542 1.2930908 0.6237793 4.5957947 0 5.5695496c-0.6238098 0.9737549 -0.7152405 0.88145447 -3.7427979 0.27296448c-3.0275574 -0.60847473 -9.752396 -3.345581 -14.422562 -3.923874c-4.670166 -0.5783081 -12.305344 -0.8390198 -13.598434 0.4540558c-1.2930756 1.2930908 6.3574066 5.7830353 5.839905 7.304474c-0.51750183 1.5214233 -4.4116364 1.5656128 -8.944885 1.8241425c-4.533249 0.25852966 -15.835953 -1.5507507 -18.254593 -0.27296448c-2.4186401 1.277771 2.41951 5.125107 3.7427826 7.939636c1.3232727 2.8145142 3.3451385 6.3307037 4.1968536 8.9474945c0.8516998 2.616806 2.5411224 5.7799683 0.91337585 6.7532806c-1.6277313 0.97332764 -9.706024 -2.237091 -10.679779 -0.91337585c-0.9737549 1.3237 2.0682373 5.6456604 4.837265 8.855637c2.7690277 3.2099762 10.513992 8.091873 11.776901 10.404205c1.2629089 2.3123322 -2.373581 2.937439 -4.199478 3.469818c-1.8258972 0.5323639 -5.43219 -0.44270325 -6.755905 -0.275589c-1.3237 0.167099 -3.0879211 -1.0192566 -1.1863403 1.2782135c1.9015656 2.2974548 9.68985 9.646545 12.595795 12.506561c2.9059448 2.8600159 4.003067 3.5735016 4.8398895 4.653549c0.83683777 1.0800476 0.36395264 1.324585 0.18110657 1.8267517c-0.18284607 0.50219727 0.22790527 0.97332764 -1.2782135 1.1863708c-1.5061188 0.2130127 -6.3136444 -0.029754639 -7.7585297 0.09185791c-1.4448853 0.12161255 -2.3105927 -0.86834717 -0.9107666 0.63778687c1.399826 1.506134 5.6894226 5.5691223 9.309708 8.398956c3.6203003 2.829834 11.028 6.7392883 12.412079 8.580048c1.384079 1.8407593 -2.4190674 2.0236206 -4.107605 2.464569c-1.6885376 0.4409485 -5.065628 -0.19903564 -6.0236206 0.18109131c-0.9580078 0.38015747 -1.7480316 0.48687744 0.275589 2.099762c2.0236206 1.612854 8.915131 5.8127747 11.866135 7.577423c2.951004 1.7646484 3.8775177 1.9912415 5.839905 3.010498c1.9623871 1.0192261 4.595352 2.328949 5.934372 3.1049805c1.3390198 0.7760315 1.8718262 0.98861694 2.0997314 1.551178c0.22790527 0.56256104 0.74365234 1.3223877 -0.7322693 1.8241577c-1.4759521 0.5017395 -6.556427 0.942688 -8.123367 1.1863403c-1.566925 0.24365234 -1.3543243 -0.13516235 -1.2782135 0.27560425c0.07611084 0.41073608 -1.384079 0.72875977 1.734909 2.1889648c3.1189728 1.4602051 12.841202 5.1421814 16.978989 6.572174c4.1378174 1.4300232 6.433075 1.1557312 7.8477783 2.0078735c1.4147034 0.85214233 1.4921265 2.0857544 0.6404114 3.1049805c-0.8516846 1.0192566 -4.776886 2.2651062 -5.750641 3.010498c-0.9737549 0.74542236 -2.1609802 0.7314148 -0.09185791 1.4619446c2.0691223 0.7305298 7.608032 2.2673035 12.506561 2.9212646c4.8984985 0.6539917 13.842072 0.22705078 16.884521 1.0026245c3.0424194 0.77560425 1.9326172 2.4186401 1.3700562 3.65094c-0.5625305 1.2322693 -3.8783875 2.829834 -4.745392 3.7427673c-0.8670349 0.91293335 -1.4300232 1.4457703 -0.45669556 1.7348938c0.97332764 0.28915405 1.7480164 0.4107666 6.29657 0c4.548584 -0.41073608 13.5555725 -0.8670044 20.994751 -2.4645386c7.439209 -1.5975647 16.642609 -3.3477783 23.640442 -7.120758c6.9978027 -3.7729492 14.071747 -10.481628 18.346436 -15.517059c4.274719 -5.035431 7.118988 -11.150909 7.3018494 -14.695526c0.18286133 -3.5446167 -1.8538818 -2.5559998 -6.204712 -6.572174c-4.35083 -4.016205 -13.236664 -12.215668 -19.900269 -17.524933c-6.6636047 -5.3092957 -12.992126 -9.584442 -20.08136 -14.330719c-7.0892334 -4.746277 -14.726166 -9.537613 -22.454071 -14.146988c-7.7279053 -4.6093597 -17.14392 -9.751526 -23.913391 -13.509186c-6.76947 -3.7576447 -13.584442 -7.1351624 -16.7034 -9.036743c-3.118988 -1.9015656 -3.835968 -2.6010437 -2.010498 -2.372696c1.8254395 0.22834778 3.1810913 -0.21260071 12.963226 3.7427826c9.782166 3.9553833 35.887146 15.486877 45.729675 19.989502c9.842529 4.5026245 5.506134 2.3101501 13.32547 7.026245c7.819336 4.716095 25.238403 15.443558 33.590546 21.27034c8.352142 5.826782 11.973297 12.777771 16.522308 13.690277z" fill-rule="nonzero"></path><path fill="#274e13" d="m456.2528 281.07745c-4.549469 0.91259766 -7.6691895 -4.960266 -10.772736 -8.216064c-3.1035461 -3.2557983 -6.235962 -6.541321 -7.848572 -11.318726c-1.6125793 -4.7773743 -3.1048584 -9.920929 -1.8269348 -17.34555c1.2778931 -7.4246216 5.0214844 -18.77353 9.494385 -27.202194c4.4729004 -8.428665 14.208771 -20.387436 17.342926 -23.369797c3.1341858 -2.9823608 0.8531189 4.24321 1.4620972 5.4756165c0.6089783 1.2324066 1.4463501 1.6296539 2.1918335 1.9188232c0.7454834 0.28918457 1.5661926 0.1968689 2.281067 -0.18374634c0.71484375 -0.38061523 -1.0198059 1.1711578 2.0080566 -2.099945c3.0278625 -3.271103 13.3289795 -15.396988 16.159119 -17.526688c2.8301086 -2.1296997 0.6089783 3.516098 0.82159424 4.7485046c0.21261597 1.2324066 0.0892334 1.7788391 0.45410156 2.645935c0.36486816 0.8671112 1.0959167 2.191391 1.7350769 2.5566864c0.6391907 0.36531067 1.5216064 -0.06036377 2.0999756 -0.36486816c0.5783386 -0.30448914 -0.1968689 0.12031555 1.3702087 -1.4620819c1.5670776 -1.5823975 5.658905 -5.9174805 8.032288 -8.032303c2.3733826 -2.1148224 5.0971985 -4.626007 6.2079773 -4.6566315c1.1107788 -0.03062439 0.2590027 3.1035461 0.45672607 4.472885c0.1977539 1.369339 0.15182495 2.7539978 0.7297363 3.743164c0.5779419 0.989151 1.4752197 2.4503784 2.7378235 2.1918182c1.2626038 -0.25856018 2.3423157 -1.8567047 4.837738 -3.743164c2.4954224 -1.8864441 7.4417114 -5.840912 10.134888 -7.5755615c2.6931763 -1.7346344 5.2026367 -2.7863617 6.024231 -2.832306c0.82159424 -0.045928955 -0.7446289 1.8720245 -1.0946045 2.5566864c-0.3499756 0.6846771 -0.8378296 0.5774994 -1.0053711 1.5513458c-0.1675415 0.97384644 -0.25854492 3.15036 0 4.2917633c0.25854492 1.1414185 0.60809326 2.4350586 1.5513306 2.5566864c0.9432373 0.12162781 1.9017944 -0.71617126 4.108032 -1.8269501c2.2062378 -1.1107941 5.6607056 -3.377411 9.129517 -4.8377533c3.468872 -1.4603424 9.736328 -3.726532 11.683594 -3.924286c1.9472656 -0.19773865 0.380188 1.9774628 0 2.7378082c-0.380188 0.7603607 -1.7184448 1.20047 -2.281067 1.8243408c-0.5626221 0.6238556 -0.9121704 1.0057831 -1.0946045 1.9188232c-0.18243408 0.91304016 -0.15179443 2.7378082 0 3.5594025c0.15179443 0.8216095 0.30230713 1.2485962 0.9108887 1.370224c0.6085205 0.12161255 0.53411865 0.12030029 2.7404175 -0.6404877c2.2062378 -0.76078796 6.8912964 -2.9049225 10.49707 -3.9242706c3.605835 -1.0193481 9.463806 -2.207138 11.137634 -2.1918335c1.6738281 0.015319824 -0.5315552 1.5382233 -1.0946045 2.2837067c-0.5630493 0.74546814 -1.9030762 0.8959656 -2.2836914 2.1891937c-0.38061523 1.2932129 -0.62384033 4.5962524 0 5.570099c0.62384033 0.9738617 0.715271 0.881546 3.743164 0.272995c3.027832 -0.60853577 9.753357 -3.3459167 14.424011 -3.9242706c4.6706543 -0.57836914 12.30658 -0.8391113 13.5997925 0.45411682c1.2932129 1.2932129 -6.358032 5.7836 -5.840515 7.305191c0.5175781 1.5215912 4.4121094 1.5657654 8.945801 1.8243256c4.5336914 0.25856018 15.837524 -1.5509033 18.256409 -0.272995c2.4188843 1.2779083 -2.4197388 5.1256256 -3.743164 7.9404297c-1.3233643 2.814804 -3.345459 6.3313446 -4.1972656 8.948395c-0.85180664 2.6170654 -2.5413818 5.780548 -0.91345215 6.7539673c1.6278687 0.97340393 9.70697 -2.23732 10.680847 -0.91348267c0.9738159 1.3238373 -2.0684814 5.64624 -4.8377686 8.856537c-2.769287 3.2102814 -10.515015 8.092667 -11.778076 10.405228c-1.2630005 2.3125763 2.3738403 2.9377441 4.19989 3.470169c1.8261108 0.5324249 5.4327393 -0.44273376 6.756592 -0.2756195c1.3238525 0.16711426 3.0882568 -1.0193481 1.1864624 1.2783508c-1.9017334 2.2976837 -9.690796 9.647507 -12.597046 12.5078125c-2.90625 2.8602905 -4.003479 3.5738373 -4.840393 4.654007c-0.83691406 1.0801697 -0.36401367 1.324707 -0.18109131 1.8269348c0.18286133 0.5022583 -0.22796631 0.9734192 1.2783203 1.1864929c1.5062866 0.21304321 6.31427 -0.029754639 7.7592773 0.09185791c1.4450684 0.12164307 2.310852 -0.8684082 0.9108887 0.6378784c-1.3999634 1.5062561 -5.6900024 5.5696716 -9.310669 8.39978c-3.6206665 2.8301086 -11.029053 6.7399597 -12.413269 8.580902c-1.3842163 1.8409729 2.4193115 2.0238342 4.107971 2.4648132c1.6887207 0.44100952 5.066162 -0.19906616 6.024231 0.18112183c0.9581299 0.380188 1.74823 0.48693848 -0.27557373 2.099945c-2.0238647 1.6130371 -8.916077 5.8133545 -11.867371 7.578186c-2.951294 1.7648315 -3.8778687 1.9914551 -5.840454 3.0108032c-1.9625854 1.0193481 -4.595825 2.329193 -5.9349976 3.1053162c-1.3391724 0.7760925 -1.8720093 0.9887085 -2.0999146 1.5513306c-0.22796631 0.56259155 -0.7437744 1.3225098 0.73236084 1.8243103c1.4760742 0.50180054 6.557068 0.94281006 8.1241455 1.1864929c1.5670776 0.24368286 1.3544922 -0.13519287 1.2783203 0.27560425c-0.07611084 0.41079712 1.3842163 0.7288513 -1.7350464 2.189209c-3.1193237 1.4603271 -12.842529 5.1426697 -16.980713 6.572815c-4.1381836 1.4301453 -6.433716 1.1558533 -7.848572 2.0080872c-1.4147949 0.8522339 -1.4922485 2.0859375 -0.6404419 3.1052856c0.8517456 1.0193481 4.7773438 2.2653198 5.7512207 3.0108032c0.9738159 0.7454834 2.1611938 0.73147583 0.09185791 1.4620972c-2.069336 0.7305908 -7.6088257 2.2674866 -12.5078125 2.9215393c-4.898987 0.65405273 -13.843445 0.22705078 -16.88623 1.0027466c-3.0427246 0.7756653 -1.9328003 2.4188538 -1.3701782 3.6512756c0.5626221 1.2323914 3.8787842 2.8301086 4.7458496 3.743164c0.86712646 0.9130249 1.4301758 1.4458923 0.4567871 1.7350769c-0.9734497 0.28918457 -1.74823 0.41079712 -6.297241 0c-4.549011 -0.41079712 -13.556885 -0.86712646 -20.996826 -2.4648132c-7.439972 -1.5977173 -16.644287 -3.348114 -23.642822 -7.12146c-6.9985046 -3.773346 -14.073151 -10.482666 -18.348267 -15.518616c-4.2751465 -5.035919 -7.1197205 -11.152039 -7.302582 -14.696991c-0.18286133 -3.544983 1.854065 -2.556244 6.205353 -6.5728455c4.3512573 -4.0166016 13.237976 -12.216888 19.902252 -17.526672c6.664276 -5.3098145 12.993408 -9.585388 20.083344 -14.332153c7.089966 -4.746765 14.727661 -9.538574 22.45636 -14.148407c7.7286377 -4.6098175 17.14563 -9.752502 23.915771 -13.510529c6.7701416 -3.7580261 13.585754 -7.1358795 16.705078 -9.037643c3.1192627 -1.9017792 3.8363037 -2.6013184 2.0106812 -2.3729553c-1.8256226 0.2283783 -3.1813965 -0.21261597 -12.964539 3.743164c-9.783142 3.95578 -35.890747 15.488419 -45.734253 19.9915c-9.843475 4.5030823 -5.506653 2.310379 -13.326782 7.026947c-7.820099 4.716568 -25.240936 15.445129 -33.593903 21.27246c-8.352997 5.827362 -11.974518 12.779053 -16.523956 13.691681z" fill-rule="nonzero"></path><path stroke="#000000" stroke-width="2.0" stroke-linejoin="round" stroke-linecap="butt" d="m456.2528 281.07745c-4.549469 0.91259766 -7.6691895 -4.960266 -10.772736 -8.216064c-3.1035461 -3.2557983 -6.235962 -6.541321 -7.848572 -11.318726c-1.6125793 -4.7773743 -3.1048584 -9.920929 -1.8269348 -17.34555c1.2778931 -7.4246216 5.0214844 -18.77353 9.494385 -27.202194c4.4729004 -8.428665 14.208771 -20.387436 17.342926 -23.369797c3.1341858 -2.9823608 0.8531189 4.24321 1.4620972 5.4756165c0.6089783 1.2324066 1.4463501 1.6296539 2.1918335 1.9188232c0.7454834 0.28918457 1.5661926 0.1968689 2.281067 -0.18374634c0.71484375 -0.38061523 -1.0198059 1.1711578 2.0080566 -2.099945c3.0278625 -3.271103 13.3289795 -15.396988 16.159119 -17.526688c2.8301086 -2.1296997 0.6089783 3.516098 0.82159424 4.7485046c0.21261597 1.2324066 0.0892334 1.7788391 0.45410156 2.645935c0.36486816 0.8671112 1.0959167 2.191391 1.7350769 2.5566864c0.6391907 0.36531067 1.5216064 -0.06036377 2.0999756 -0.36486816c0.5783386 -0.30448914 -0.1968689 0.12031555 1.3702087 -1.4620819c1.5670776 -1.5823975 5.658905 -5.9174805 8.032288 -8.032303c2.3733826 -2.1148224 5.0971985 -4.626007 6.2079773 -4.6566315c1.1107788 -0.03062439 0.2590027 3.1035461 0.45672607 4.472885c0.1977539 1.369339 0.15182495 2.7539978 0.7297363 3.743164c0.5779419 0.989151 1.4752197 2.4503784 2.7378235 2.1918182c1.2626038 -0.25856018 2.3423157 -1.8567047 4.837738 -3.743164c2.4954224 -1.8864441 7.4417114 -5.840912 10.134888 -7.5755615c2.6931763 -1.7346344 5.2026367 -2.7863617 6.024231 -2.832306c0.82159424 -0.045928955 -0.7446289 1.8720245 -1.0946045 2.5566864c-0.3499756 0.6846771 -0.8378296 0.5774994 -1.0053711 1.5513458c-0.1675415 0.97384644 -0.25854492 3.15036 0 4.2917633c0.25854492 1.1414185 0.60809326 2.4350586 1.5513306 2.5566864c0.9432373 0.12162781 1.9017944 -0.71617126 4.108032 -1.8269501c2.2062378 -1.1107941 5.6607056 -3.377411 9.129517 -4.8377533c3.468872 -1.4603424 9.736328 -3.726532 11.683594 -3.924286c1.9472656 -0.19773865 0.380188 1.9774628 0 2.7378082c-0.380188 0.7603607 -1.7184448 1.20047 -2.281067 1.8243408c-0.5626221 0.6238556 -0.9121704 1.0057831 -1.0946045 1.9188232c-0.18243408 0.91304016 -0.15179443 2.7378082 0 3.5594025c0.15179443 0.8216095 0.30230713 1.2485962 0.9108887 1.370224c0.6085205 0.12161255 0.53411865 0.12030029 2.7404175 -0.6404877c2.2062378 -0.76078796 6.8912964 -2.9049225 10.49707 -3.9242706c3.605835 -1.0193481 9.463806 -2.207138 11.137634 -2.1918335c1.6738281 0.015319824 -0.5315552 1.5382233 -1.0946045 2.2837067c-0.5630493 0.74546814 -1.9030762 0.8959656 -2.2836914 2.1891937c-0.38061523 1.2932129 -0.62384033 4.5962524 0 5.570099c0.62384033 0.9738617 0.715271 0.881546 3.743164 0.272995c3.027832 -0.60853577 9.753357 -3.3459167 14.424011 -3.9242706c4.6706543 -0.57836914 12.30658 -0.8391113 13.5997925 0.45411682c1.2932129 1.2932129 -6.358032 5.7836 -5.840515 7.305191c0.5175781 1.5215912 4.4121094 1.5657654 8.945801 1.8243256c4.5336914 0.25856018 15.837524 -1.5509033 18.256409 -0.272995c2.4188843 1.2779083 -2.4197388 5.1256256 -3.743164 7.9404297c-1.3233643 2.814804 -3.345459 6.3313446 -4.1972656 8.948395c-0.85180664 2.6170654 -2.5413818 5.780548 -0.91345215 6.7539673c1.6278687 0.97340393 9.70697 -2.23732 10.680847 -0.91348267c0.9738159 1.3238373 -2.0684814 5.64624 -4.8377686 8.856537c-2.769287 3.2102814 -10.515015 8.092667 -11.778076 10.405228c-1.2630005 2.3125763 2.3738403 2.9377441 4.19989 3.470169c1.8261108 0.5324249 5.4327393 -0.44273376 6.756592 -0.2756195c1.3238525 0.16711426 3.0882568 -1.0193481 1.1864624 1.2783508c-1.9017334 2.2976837 -9.690796 9.647507 -12.597046 12.5078125c-2.90625 2.8602905 -4.003479 3.5738373 -4.840393 4.654007c-0.83691406 1.0801697 -0.36401367 1.324707 -0.18109131 1.8269348c0.18286133 0.5022583 -0.22796631 0.9734192 1.2783203 1.1864929c1.5062866 0.21304321 6.31427 -0.029754639 7.7592773 0.09185791c1.4450684 0.12164307 2.310852 -0.8684082 0.9108887 0.6378784c-1.3999634 1.5062561 -5.6900024 5.5696716 -9.310669 8.39978c-3.6206665 2.8301086 -11.029053 6.7399597 -12.413269 8.580902c-1.3842163 1.8409729 2.4193115 2.0238342 4.107971 2.4648132c1.6887207 0.44100952 5.066162 -0.19906616 6.024231 0.18112183c0.9581299 0.380188 1.74823 0.48693848 -0.27557373 2.099945c-2.0238647 1.6130371 -8.916077 5.8133545 -11.867371 7.578186c-2.951294 1.7648315 -3.8778687 1.9914551 -5.840454 3.0108032c-1.9625854 1.0193481 -4.595825 2.329193 -5.9349976 3.1053162c-1.3391724 0.7760925 -1.8720093 0.9887085 -2.0999146 1.5513306c-0.22796631 0.56259155 -0.7437744 1.3225098 0.73236084 1.8243103c1.4760742 0.50180054 6.557068 0.94281006 8.1241455 1.1864929c1.5670776 0.24368286 1.3544922 -0.13519287 1.2783203 0.27560425c-0.07611084 0.41079712 1.3842163 0.7288513 -1.7350464 2.189209c-3.1193237 1.4603271 -12.842529 5.1426697 -16.980713 6.572815c-4.1381836 1.4301453 -6.433716 1.1558533 -7.848572 2.0080872c-1.4147949 0.8522339 -1.4922485 2.0859375 -0.6404419 3.1052856c0.8517456 1.0193481 4.7773438 2.2653198 5.7512207 3.0108032c0.9738159 0.7454834 2.1611938 0.73147583 0.09185791 1.4620972c-2.069336 0.7305908 -7.6088257 2.2674866 -12.5078125 2.9215393c-4.898987 0.65405273 -13.843445 0.22705078 -16.88623 1.0027466c-3.0427246 0.7756653 -1.9328003 2.4188538 -1.3701782 3.6512756c0.5626221 1.2323914 3.8787842 2.8301086 4.7458496 3.743164c0.86712646 0.9130249 1.4301758 1.4458923 0.4567871 1.7350769c-0.9734497 0.28918457 -1.74823 0.41079712 -6.297241 0c-4.549011 -0.41079712 -13.556885 -0.86712646 -20.996826 -2.4648132c-7.439972 -1.5977173 -16.644287 -3.348114 -23.642822 -7.12146c-6.9985046 -3.773346 -14.073151 -10.482666 -18.348267 -15.518616c-4.2751465 -5.035919 -7.1197205 -11.152039 -7.302582 -14.696991c-0.18286133 -3.544983 1.854065 -2.556244 6.205353 -6.5728455c4.3512573 -4.0166016 13.237976 -12.216888 19.902252 -17.526672c6.664276 -5.3098145 12.993408 -9.585388 20.083344 -14.332153c7.089966 -4.746765 14.727661 -9.538574 22.45636 -14.148407c7.7286377 -4.6098175 17.14563 -9.752502 23.915771 -13.510529c6.7701416 -3.7580261 13.585754 -7.1358795 16.705078 -9.037643c3.1192627 -1.9017792 3.8363037 -2.6013184 2.0106812 -2.3729553c-1.8256226 0.2283783 -3.1813965 -0.21261597 -12.964539 3.743164c-9.783142 3.95578 -35.890747 15.488419 -45.734253 19.9915c-9.843475 4.5030823 -5.506653 2.310379 -13.326782 7.026947c-7.820099 4.716568 -25.240936 15.445129 -33.593903 21.27246c-8.352997 5.827362 -11.974518 12.779053 -16.523956 13.691681z" fill-rule="nonzero"></path><path fill="#be1e45" d="m356.6283 373.25314l0 0c0 -20.560669 28.77362 -37.228363 64.2677 -37.228363l0 0c35.49408 0 64.26773 16.667694 64.26773 37.228363l0 0c0 20.560638 -28.773651 37.228333 -64.26773 37.228333l0 0c-35.49408 0 -64.2677 -16.667694 -64.2677 -37.228333z" fill-rule="nonzero"></path><path stroke="#000000" stroke-width="4.0" stroke-linejoin="round" stroke-linecap="butt" d="m356.6283 373.25314l0 0c0 -20.560669 28.77362 -37.228363 64.2677 -37.228363l0 0c35.49408 0 64.26773 16.667694 64.26773 37.228363l0 0c0 20.560638 -28.773651 37.228333 -64.26773 37.228333l0 0c-35.49408 0 -64.2677 -16.667694 -64.2677 -37.228333z" fill-rule="nonzero"></path><path fill="#be1e45" d="m446.49442 516.31616l0 0c-19.108185 -37.459717 -9.209076 -80.77881 22.11023 -96.75592l0 0c15.0401 -7.6724854 33.109344 -7.8847046 50.232758 -0.5899658c17.123352 7.2947083 31.898254 21.49884 41.07434 39.48761l0 0c19.108154 37.459686 9.209106 80.77881 -22.11023 96.75592l0 0c-31.319336 15.977112 -72.19891 -1.4379883 -91.3071 -38.897644z" fill-rule="nonzero"></path><path stroke="#000000" stroke-width="4.0" stroke-linejoin="round" stroke-linecap="butt" d="m446.49442 516.31616l0 0c-19.108185 -37.459717 -9.209076 -80.77881 22.11023 -96.75592l0 0c15.0401 -7.6724854 33.109344 -7.8847046 50.232758 -0.5899658c17.123352 7.2947083 31.898254 21.49884 41.07434 39.48761l0 0c19.108154 37.459686 9.209106 80.77881 -22.11023 96.75592l0 0c-31.319336 15.977112 -72.19891 -1.4379883 -91.3071 -38.897644z" fill-rule="nonzero"></path><path fill="#be1e45" d="m394.0902 520.6967l0 0c19.108185 -37.459686 9.209106 -80.77878 -22.11023 -96.75589l0 0c-15.04007 -7.6724854 -33.109314 -7.8847046 -50.232727 -0.58999634c-17.123383 7.294739 -31.898285 21.49884 -41.07434 39.48764l0 0c-19.108185 37.459686 -9.209106 80.77878 22.11023 96.75589l0 0c31.319336 15.977112 72.19891 -1.4379272 91.30707 -38.897644z" fill-rule="nonzero"></path><path stroke="#000000" stroke-width="4.0" stroke-linejoin="round" stroke-linecap="butt" d="m394.0902 520.6967l0 0c19.108185 -37.459686 9.209106 -80.77878 -22.11023 -96.75589l0 0c-15.04007 -7.6724854 -33.109314 -7.8847046 -50.232727 -0.58999634c-17.123383 7.294739 -31.898285 21.49884 -41.07434 39.48764l0 0c-19.108185 37.459686 -9.209106 80.77878 22.11023 96.75589l0 0c31.319336 15.977112 72.19891 -1.4379272 91.30707 -38.897644z" fill-rule="nonzero"></path><path fill="#be1e45" d="m530.42267 350.90192c-3.4685059 -0.6693115 -5.3844604 -1.1242371 -9.309692 -1.3674622c-3.925171 -0.2432251 -9.981628 -0.31976318 -14.241455 -0.09185791c-4.259857 0.22790527 -8.990387 0.83551025 -11.317596 1.4593201c-2.3272095 0.6237793 -2.691162 0.83813477 -2.6456604 2.2834473c0.04550171 1.4453125 0.46936035 2.9505615 2.9186401 6.3884583c2.4492493 3.4378662 8.095367 10.115906 11.776886 14.238831c3.681549 4.122925 5.7790833 6.1172485 10.312347 10.498688c4.533264 4.3814697 11.958008 11.317596 16.887146 15.790039c4.929138 4.4724426 7.5 6.90683 12.687683 11.044617c5.187622 4.137787 13.463684 10.206909 18.438293 13.782166c4.9746094 3.5752258 7.7279053 5.554657 11.409424 7.669281c3.6815796 2.114624 8.215271 4.0905457 10.67981 5.0183716c2.4645386 0.9278259 3.012268 0.9133911 4.107605 0.54855347c1.095398 -0.36483765 2.0691528 -0.3189087 2.4645996 -2.7375183c0.39544678 -2.4186401 0.19726562 -7.666687 -0.09185791 -11.774292c-0.28918457 -4.107605 -0.44140625 -7.9575806 -1.6430664 -12.871399c-1.2016602 -4.9138184 -3.3613281 -11.591431 -5.5669556 -16.611542c-2.2055664 -5.020111 -4.593567 -9.29483 -7.666626 -13.509186c-3.073059 -4.2143555 -6.8464966 -8.307953 -10.7716675 -11.776886c-3.925232 -3.4689636 -8.291809 -6.481201 -12.779541 -9.036774c-4.487732 -2.555542 -9.872253 -4.8057556 -14.146973 -6.29657c-4.274719 -1.4908142 -8.032837 -1.9790039 -11.501343 -2.648285z" fill-rule="nonzero"></path><path stroke="#000000" stroke-width="4.0" stroke-linejoin="round" stroke-linecap="butt" d="m530.42267 350.90192c-3.4685059 -0.6693115 -5.3844604 -1.1242371 -9.309692 -1.3674622c-3.925171 -0.2432251 -9.981628 -0.31976318 -14.241455 -0.09185791c-4.259857 0.22790527 -8.990387 0.83551025 -11.317596 1.4593201c-2.3272095 0.6237793 -2.691162 0.83813477 -2.6456604 2.2834473c0.04550171 1.4453125 0.46936035 2.9505615 2.9186401 6.3884583c2.4492493 3.4378662 8.095367 10.115906 11.776886 14.238831c3.681549 4.122925 5.7790833 6.1172485 10.312347 10.498688c4.533264 4.3814697 11.958008 11.317596 16.887146 15.790039c4.929138 4.4724426 7.5 6.90683 12.687683 11.044617c5.187622 4.137787 13.463684 10.206909 18.438293 13.782166c4.9746094 3.5752258 7.7279053 5.554657 11.409424 7.669281c3.6815796 2.114624 8.215271 4.0905457 10.67981 5.0183716c2.4645386 0.9278259 3.012268 0.9133911 4.107605 0.54855347c1.095398 -0.36483765 2.0691528 -0.3189087 2.4645996 -2.7375183c0.39544678 -2.4186401 0.19726562 -7.666687 -0.09185791 -11.774292c-0.28918457 -4.107605 -0.44140625 -7.9575806 -1.6430664 -12.871399c-1.2016602 -4.9138184 -3.3613281 -11.591431 -5.5669556 -16.611542c-2.2055664 -5.020111 -4.593567 -9.29483 -7.666626 -13.509186c-3.073059 -4.2143555 -6.8464966 -8.307953 -10.7716675 -11.776886c-3.925232 -3.4689636 -8.291809 -6.481201 -12.779541 -9.036774c-4.487732 -2.555542 -9.872253 -4.8057556 -14.146973 -6.29657c-4.274719 -1.4908142 -8.032837 -1.9790039 -11.501343 -2.648285z" fill-rule="nonzero"></path><path fill="#be1e45" d="m246.24695 398.6172c-1.2106171 3.3187256 -1.9635162 5.138489 -2.8258057 8.9756775c-0.8623047 3.8371887 -1.8978424 9.805176 -2.347992 14.047455c-0.45013428 4.2423096 -0.5999756 9.0095215 -0.35290527 11.4062805c0.24708557 2.396759 0.40104675 2.7901 1.8353577 2.9742737c1.4343262 0.18417358 2.987793 0.004211426 6.770569 -1.8692932c3.7827606 -1.8735046 11.271576 -6.389984 15.926056 -9.371643c4.6545105 -2.9816895 6.9561462 -4.7366943 12.000916 -8.518372c5.0447693 -3.7816772 13.070343 -10.013489 18.2677 -14.171631c5.197357 -4.158142 8.008545 -6.310791 12.916443 -10.777252c4.907898 -4.466461 12.212311 -11.676239 16.530975 -16.021515c4.3186646 -4.345276 6.709564 -6.750122 9.3810425 -10.05011c2.6715088 -3.2999878 5.3411255 -7.4633484 6.647888 -9.749817c1.3067627 -2.286438 1.3793335 -2.8295288 1.1927185 -3.9689026c-0.18661499 -1.1393738 0.013061523 -2.0935974 -2.3124084 -2.8674011c-2.3255005 -0.7738342 -7.5388184 -1.4099731 -11.640503 -1.7755127c-4.1016846 -0.36557007 -7.927246 -0.82547 -12.969635 -0.41778564c-5.0423584 0.40768433 -11.978119 1.48172 -17.284576 2.863861c-5.3064575 1.3821106 -9.905823 3.0625 -14.554138 5.4288635c-4.648346 2.3663635 -9.288452 5.4433594 -13.335846 8.769287c-4.0473633 3.3258972 -7.713745 7.160034 -10.948425 11.186188c-3.234665 4.026123 -6.309967 8.986145 -8.459549 12.970703c-2.1495667 3.984558 -3.2272644 7.61792 -4.4378815 10.9366455z" fill-rule="nonzero"></path><path stroke="#000000" stroke-width="4.0" stroke-linejoin="round" stroke-linecap="butt" d="m246.24695 398.6172c-1.2106171 3.3187256 -1.9635162 5.138489 -2.8258057 8.9756775c-0.8623047 3.8371887 -1.8978424 9.805176 -2.347992 14.047455c-0.45013428 4.2423096 -0.5999756 9.0095215 -0.35290527 11.4062805c0.24708557 2.396759 0.40104675 2.7901 1.8353577 2.9742737c1.4343262 0.18417358 2.987793 0.004211426 6.770569 -1.8692932c3.7827606 -1.8735046 11.271576 -6.389984 15.926056 -9.371643c4.6545105 -2.9816895 6.9561462 -4.7366943 12.000916 -8.518372c5.0447693 -3.7816772 13.070343 -10.013489 18.2677 -14.171631c5.197357 -4.158142 8.008545 -6.310791 12.916443 -10.777252c4.907898 -4.466461 12.212311 -11.676239 16.530975 -16.021515c4.3186646 -4.345276 6.709564 -6.750122 9.3810425 -10.05011c2.6715088 -3.2999878 5.3411255 -7.4633484 6.647888 -9.749817c1.3067627 -2.286438 1.3793335 -2.8295288 1.1927185 -3.9689026c-0.18661499 -1.1393738 0.013061523 -2.0935974 -2.3124084 -2.8674011c-2.3255005 -0.7738342 -7.5388184 -1.4099731 -11.640503 -1.7755127c-4.1016846 -0.36557007 -7.927246 -0.82547 -12.969635 -0.41778564c-5.0423584 0.40768433 -11.978119 1.48172 -17.284576 2.863861c-5.3064575 1.3821106 -9.905823 3.0625 -14.554138 5.4288635c-4.648346 2.3663635 -9.288452 5.4433594 -13.335846 8.769287c-4.0473633 3.3258972 -7.713745 7.160034 -10.948425 11.186188c-3.234665 4.026123 -6.309967 8.986145 -8.459549 12.970703c-2.1495667 3.984558 -3.2272644 7.61792 -4.4378815 10.9366455z" fill-rule="nonzero"></path><path fill="#be1e45" d="m635.6687 490.6489c-1.4151611 -2.6469727 -2.7857056 -5.1872253 -4.3832397 -7.7585144c-1.5975342 -2.5713196 -3.5441895 -5.493866 -5.2020874 -7.669281c-1.657898 -2.175415 -3.0568848 -3.6793518 -4.7454224 -5.383209c-1.6885376 -1.7038574 -3.5751953 -3.318451 -5.385803 -4.839905c-1.8106079 -1.5214233 -3.9260864 -3.1478577 -5.477722 -4.2886963c-1.5515747 -1.1408691 -2.63031 -1.841217 -3.8319702 -2.5564575c-1.2016602 -0.71520996 -2.1605835 -1.4916687 -3.3779907 -1.7348938c-1.2174072 -0.2432251 -2.6334229 -0.43963623 -3.9265137 0.27560425c-1.2930908 0.71520996 -2.4628296 1.8556213 -3.8320312 4.015747c-1.3692017 2.1600952 -3.2269897 4.5332336 -4.3831787 8.944855c-1.156189 4.4116516 -2.2497559 11.226624 -2.553833 17.524963c-0.3040161 6.2983093 -0.16796875 11.8368225 0.7296753 20.265076c0.89764404 8.428253 2.663208 21.31363 4.656189 30.304474c1.992981 8.990784 4.9746094 17.722656 7.301819 23.64038c2.3272095 5.9177856 4.501343 8.930054 6.661438 11.86615c2.1600952 2.9361572 4.595337 4.625122 6.2991943 5.7506714c1.7038574 1.1255493 2.4024658 1.489502 3.9238892 1.0026245c1.5214233 -0.48687744 2.8919678 -1.5205688 5.204712 -3.9238892c2.3128052 -2.4033203 6.237976 -6.6776123 8.671936 -10.496033c2.43396 -3.8184814 4.380127 -8.657043 5.9317627 -12.414734c1.5516357 -3.7576294 2.5109253 -6.769043 3.3779297 -10.131226c0.8670044 -3.3621826 1.4593506 -5.9037476 1.8241577 -10.041992c0.36480713 -4.1382446 0.56256104 -10.542847 0.36480713 -14.787415c-0.19769287 -4.244507 -0.9277954 -7.4396057 -1.5511475 -10.679779c-0.62335205 -3.2401428 -1.1395264 -5.947052 -2.1889648 -8.761139c-1.0494385 -2.814087 -2.692505 -5.4763794 -4.107605 -8.123383z" fill-rule="nonzero"></path><path stroke="#000000" stroke-width="4.0" stroke-linejoin="round" stroke-linecap="butt" d="m635.6687 490.6489c-1.4151611 -2.6469727 -2.7857056 -5.1872253 -4.3832397 -7.7585144c-1.5975342 -2.5713196 -3.5441895 -5.493866 -5.2020874 -7.669281c-1.657898 -2.175415 -3.0568848 -3.6793518 -4.7454224 -5.383209c-1.6885376 -1.7038574 -3.5751953 -3.318451 -5.385803 -4.839905c-1.8106079 -1.5214233 -3.9260864 -3.1478577 -5.477722 -4.2886963c-1.5515747 -1.1408691 -2.63031 -1.841217 -3.8319702 -2.5564575c-1.2016602 -0.71520996 -2.1605835 -1.4916687 -3.3779907 -1.7348938c-1.2174072 -0.2432251 -2.6334229 -0.43963623 -3.9265137 0.27560425c-1.2930908 0.71520996 -2.4628296 1.8556213 -3.8320312 4.015747c-1.3692017 2.1600952 -3.2269897 4.5332336 -4.3831787 8.944855c-1.156189 4.4116516 -2.2497559 11.226624 -2.553833 17.524963c-0.3040161 6.2983093 -0.16796875 11.8368225 0.7296753 20.265076c0.89764404 8.428253 2.663208 21.31363 4.656189 30.304474c1.992981 8.990784 4.9746094 17.722656 7.301819 23.64038c2.3272095 5.9177856 4.501343 8.930054 6.661438 11.86615c2.1600952 2.9361572 4.595337 4.625122 6.2991943 5.7506714c1.7038574 1.1255493 2.4024658 1.489502 3.9238892 1.0026245c1.5214233 -0.48687744 2.8919678 -1.5205688 5.204712 -3.9238892c2.3128052 -2.4033203 6.237976 -6.6776123 8.671936 -10.496033c2.43396 -3.8184814 4.380127 -8.657043 5.9317627 -12.414734c1.5516357 -3.7576294 2.5109253 -6.769043 3.3779297 -10.131226c0.8670044 -3.3621826 1.4593506 -5.9037476 1.8241577 -10.041992c0.36480713 -4.1382446 0.56256104 -10.542847 0.36480713 -14.787415c-0.19769287 -4.244507 -0.9277954 -7.4396057 -1.5511475 -10.679779c-0.62335205 -3.2401428 -1.1395264 -5.947052 -2.1889648 -8.761139c-1.0494385 -2.814087 -2.692505 -5.4763794 -4.107605 -8.123383z" fill-rule="nonzero"></path><path fill="#be1e45" d="m198.81828 492.36807c1.4151306 -2.6469727 2.7856445 -5.1872253 4.383194 -7.758545c1.5975647 -2.571289 3.5441895 -5.493866 5.2021027 -7.669281c1.6579285 -2.175415 3.0568695 -3.6793518 4.745407 -5.383209c1.6885376 -1.7038269 3.575241 -3.318451 5.3858337 -4.8398743c1.8105774 -1.5214539 3.9260712 -3.1478577 5.4776917 -4.288727c1.5516205 -1.1408691 2.6303558 -1.841217 3.832016 -2.556427c1.2016602 -0.7152405 2.1605377 -1.4916992 3.3779602 -1.7349243c1.2174072 -0.24319458 2.6334076 -0.4396057 3.9264984 0.27560425c1.2930908 0.71520996 2.4628143 1.8556519 3.8320312 4.015747c1.3692017 2.1600952 3.2270355 4.5332336 4.383194 8.944885c1.1561737 4.411621 2.2497864 11.226593 2.5538025 17.524933c0.30403137 6.29834 0.16798401 11.8368225 -0.72966003 20.265076c-0.8976288 8.428284 -2.6631622 21.31366 -4.6561584 30.304504c-1.9929962 8.990784 -4.9746246 17.722656 -7.301834 23.64038c-2.3272095 5.9177856 -4.5013123 8.929993 -6.6614227 11.86615c-2.1601105 2.9361572 -4.5953674 4.625122 -6.2992096 5.7506714c-1.7038574 1.1255493 -2.4024506 1.489502 -3.9238892 1.0026245c-1.5214386 -0.48687744 -2.8919525 -1.5205688 -5.204727 -3.9238892c-2.3127747 -2.4033203 -6.237961 -6.6776123 -8.6719055 -10.496094c-2.43396 -3.8184204 -4.380142 -8.657043 -5.9317627 -12.414673c-1.5516205 -3.7576294 -2.5109406 -6.769043 -3.3779602 -10.131226c-0.8670044 -3.3622437 -1.4593201 -5.9037476 -1.8241425 -10.041992c-0.3648224 -4.1382446 -0.56256104 -10.542908 -0.3648224 -14.787415c0.19772339 -4.244507 0.92781067 -7.439636 1.551178 -10.679779c0.62335205 -3.2401733 1.1395416 -5.9470825 2.18898 -8.761169c1.0494232 -2.814087 2.6924744 -5.4763794 4.107605 -8.123352z" fill-rule="nonzero"></path><path stroke="#000000" stroke-width="4.0" stroke-linejoin="round" stroke-linecap="butt" d="m198.81828 492.36807c1.4151306 -2.6469727 2.7856445 -5.1872253 4.383194 -7.758545c1.5975647 -2.571289 3.5441895 -5.493866 5.2021027 -7.669281c1.6579285 -2.175415 3.0568695 -3.6793518 4.745407 -5.383209c1.6885376 -1.7038269 3.575241 -3.318451 5.3858337 -4.8398743c1.8105774 -1.5214539 3.9260712 -3.1478577 5.4776917 -4.288727c1.5516205 -1.1408691 2.6303558 -1.841217 3.832016 -2.556427c1.2016602 -0.7152405 2.1605377 -1.4916992 3.3779602 -1.7349243c1.2174072 -0.24319458 2.6334076 -0.4396057 3.9264984 0.27560425c1.2930908 0.71520996 2.4628143 1.8556519 3.8320312 4.015747c1.3692017 2.1600952 3.2270355 4.5332336 4.383194 8.944885c1.1561737 4.411621 2.2497864 11.226593 2.5538025 17.524933c0.30403137 6.29834 0.16798401 11.8368225 -0.72966003 20.265076c-0.8976288 8.428284 -2.6631622 21.31366 -4.6561584 30.304504c-1.9929962 8.990784 -4.9746246 17.722656 -7.301834 23.64038c-2.3272095 5.9177856 -4.5013123 8.929993 -6.6614227 11.86615c-2.1601105 2.9361572 -4.5953674 4.625122 -6.2992096 5.7506714c-1.7038574 1.1255493 -2.4024506 1.489502 -3.9238892 1.0026245c-1.5214386 -0.48687744 -2.8919525 -1.5205688 -5.204727 -3.9238892c-2.3127747 -2.4033203 -6.237961 -6.6776123 -8.6719055 -10.496094c-2.43396 -3.8184204 -4.380142 -8.657043 -5.9317627 -12.414673c-1.5516205 -3.7576294 -2.5109406 -6.769043 -3.3779602 -10.131226c-0.8670044 -3.3622437 -1.4593201 -5.9037476 -1.8241425 -10.041992c-0.3648224 -4.1382446 -0.56256104 -10.542908 -0.3648224 -14.787415c0.19772339 -4.244507 0.92781067 -7.439636 1.551178 -10.679779c0.62335205 -3.2401733 1.1395416 -5.9470825 2.18898 -8.761169c1.0494232 -2.814087 2.6924744 -5.4763794 4.107605 -8.123352z" fill-rule="nonzero"></path><path fill="#fbdb85" d="m294.36166 615.1638c-6.7397156 3.8128052 -8.252411 5.1679688 -12.314941 8.188965c-4.062561 3.0210571 -9.383636 7.728821 -12.060364 9.937012c-2.6767578 2.208252 -3.2913513 2.031067 -4.0 3.312378c-0.7086792 1.28125 -0.19992065 1.0314941 -0.25198364 4.375305c-0.05206299 3.343811 -0.3416443 10.594055 -0.06036377 15.687683c0.28128052 5.093628 0.9252014 10.10321 1.7480164 14.874023c0.82284546 4.770752 1.5223083 8.823669 3.1889954 13.75061c1.6666565 4.927002 4.1132812 10.904663 6.8110046 15.811035c2.6977234 4.906372 5.7917786 9.356079 9.375336 13.627319c3.5835571 4.271179 7.979889 8.468933 12.125977 12.0c4.146118 3.531067 7.1465454 5.9676514 12.750671 9.18634c5.6040955 3.21875 14.863953 7.6469727 20.874023 10.125977c6.0100403 2.479004 9.509186 3.269043 15.18634 4.748047c5.6771545 1.4790039 10.157928 3.0529175 18.876648 4.1259766c8.7187195 1.0730591 21.456696 1.989502 33.4357 2.312317c11.979004 0.32287598 28.740143 -0.07305908 38.438324 -0.37530518c9.698151 -0.3022461 13.073486 -0.67803955 19.75064 -1.4382935c6.6771545 -0.76031494 13.791351 -1.8735962 20.312347 -3.123413c6.520996 -1.2497559 13.417755 -2.750183 18.81363 -4.375305c5.3959045 -1.6251221 8.541138 -3.0835571 13.561676 -5.375305c5.020569 -2.291809 11.593201 -5.3442993 16.561707 -8.375366c4.968506 -3.031067 9.59314 -6.6132812 13.249329 -9.811035c3.656189 -3.1976929 5.677185 -5.666626 8.687683 -9.375305c3.010498 -3.7086792 6.583557 -7.793091 9.375305 -12.876648c2.791809 -5.083557 5.594055 -11.624634 7.375305 -17.624634c1.781311 -6.0 2.6767578 -12.021484 3.312378 -18.375366c0.6356201 -6.353882 0.6264038 -15.019226 0.50128174 -19.748047c-0.12512207 -4.72876 -0.27252197 -6.1661987 -1.2519531 -8.624634c-0.97943115 -2.458435 -1.9164429 -3.5008545 -4.624695 -6.1259766c-2.708191 -2.625122 -7.249756 -6.645691 -11.624634 -9.624695c-4.374878 -2.979004 -8.499573 -5.2698975 -14.624695 -8.249329c-6.125122 -2.9794312 -14.563416 -6.5021973 -22.125977 -9.627319c-7.562561 -3.125122 -14.707794 -6.352539 -23.249329 -9.123352c-8.541565 -2.770752 -20.208252 -5.73053 -28.0 -7.5012817c-7.7917786 -1.770813 -12.39679 -2.3320312 -18.750671 -3.123413c-6.353882 -0.7913208 -12.414703 -1.3118896 -19.372711 -1.6246338c-6.958008 -0.31280518 -14.270782 -0.6268921 -22.375305 -0.25195312c-8.104553 0.37487793 -17.668427 1.1259766 -26.251984 2.5012817c-8.583557 1.3753052 -16.041107 3.1675415 -25.249329 5.7506714c-9.208252 2.58313 -20.312775 5.675415 -30.0 9.748047c-9.687256 4.072571 -21.383667 10.874878 -28.123383 14.687622z" fill-rule="nonzero"></path><path stroke="#000000" stroke-width="2.0" stroke-linejoin="round" stroke-linecap="butt" d="m294.36166 615.1638c-6.7397156 3.8128052 -8.252411 5.1679688 -12.314941 8.188965c-4.062561 3.0210571 -9.383636 7.728821 -12.060364 9.937012c-2.6767578 2.208252 -3.2913513 2.031067 -4.0 3.312378c-0.7086792 1.28125 -0.19992065 1.0314941 -0.25198364 4.375305c-0.05206299 3.343811 -0.3416443 10.594055 -0.06036377 15.687683c0.28128052 5.093628 0.9252014 10.10321 1.7480164 14.874023c0.82284546 4.770752 1.5223083 8.823669 3.1889954 13.75061c1.6666565 4.927002 4.1132812 10.904663 6.8110046 15.811035c2.6977234 4.906372 5.7917786 9.356079 9.375336 13.627319c3.5835571 4.271179 7.979889 8.468933 12.125977 12.0c4.146118 3.531067 7.1465454 5.9676514 12.750671 9.18634c5.6040955 3.21875 14.863953 7.6469727 20.874023 10.125977c6.0100403 2.479004 9.509186 3.269043 15.18634 4.748047c5.6771545 1.4790039 10.157928 3.0529175 18.876648 4.1259766c8.7187195 1.0730591 21.456696 1.989502 33.4357 2.312317c11.979004 0.32287598 28.740143 -0.07305908 38.438324 -0.37530518c9.698151 -0.3022461 13.073486 -0.67803955 19.75064 -1.4382935c6.6771545 -0.76031494 13.791351 -1.8735962 20.312347 -3.123413c6.520996 -1.2497559 13.417755 -2.750183 18.81363 -4.375305c5.3959045 -1.6251221 8.541138 -3.0835571 13.561676 -5.375305c5.020569 -2.291809 11.593201 -5.3442993 16.561707 -8.375366c4.968506 -3.031067 9.59314 -6.6132812 13.249329 -9.811035c3.656189 -3.1976929 5.677185 -5.666626 8.687683 -9.375305c3.010498 -3.7086792 6.583557 -7.793091 9.375305 -12.876648c2.791809 -5.083557 5.594055 -11.624634 7.375305 -17.624634c1.781311 -6.0 2.6767578 -12.021484 3.312378 -18.375366c0.6356201 -6.353882 0.6264038 -15.019226 0.50128174 -19.748047c-0.12512207 -4.72876 -0.27252197 -6.1661987 -1.2519531 -8.624634c-0.97943115 -2.458435 -1.9164429 -3.5008545 -4.624695 -6.1259766c-2.708191 -2.625122 -7.249756 -6.645691 -11.624634 -9.624695c-4.374878 -2.979004 -8.499573 -5.2698975 -14.624695 -8.249329c-6.125122 -2.9794312 -14.563416 -6.5021973 -22.125977 -9.627319c-7.562561 -3.125122 -14.707794 -6.352539 -23.249329 -9.123352c-8.541565 -2.770752 -20.208252 -5.73053 -28.0 -7.5012817c-7.7917786 -1.770813 -12.39679 -2.3320312 -18.750671 -3.123413c-6.353882 -0.7913208 -12.414703 -1.3118896 -19.372711 -1.6246338c-6.958008 -0.31280518 -14.270782 -0.6268921 -22.375305 -0.25195312c-8.104553 0.37487793 -17.668427 1.1259766 -26.251984 2.5012817c-8.583557 1.3753052 -16.041107 3.1675415 -25.249329 5.7506714c-9.208252 2.58313 -20.312775 5.675415 -30.0 9.748047c-9.687256 4.072571 -21.383667 10.874878 -28.123383 14.687622z" fill-rule="nonzero"></path><path fill="#ffffff" d="m353.65192 648.6311l0 0c0 -22.282715 5.52063 -40.346436 12.330688 -40.346436l0 0c3.2703247 0 6.4066772 4.2507324 8.719147 11.8172c2.312439 7.5664062 3.6115723 17.828674 3.6115723 28.529236l0 0c0 22.282715 -5.5206604 40.346436 -12.330719 40.346436l0 0c-3.2702942 0 -6.4066772 -4.2507324 -8.719116 -11.8172c-2.3124695 -7.5664062 -3.6115723 -17.828674 -3.6115723 -28.529236z" fill-rule="nonzero"></path><path stroke="#000000" stroke-width="4.0" stroke-linejoin="round" stroke-linecap="butt" d="m353.65192 648.6311l0 0c0 -22.282715 5.52063 -40.346436 12.330688 -40.346436l0 0c3.2703247 0 6.4066772 4.2507324 8.719147 11.8172c2.312439 7.5664062 3.6115723 17.828674 3.6115723 28.529236l0 0c0 22.282715 -5.5206604 40.346436 -12.330719 40.346436l0 0c-3.2702942 0 -6.4066772 -4.2507324 -8.719116 -11.8172c-2.3124695 -7.5664062 -3.6115723 -17.828674 -3.6115723 -28.529236z" fill-rule="nonzero"></path><path fill="#000000" d="m353.60464 634.4893l0 0c0 30.093018 5.541809 54.48822 12.37796 54.48822c6.836151 0 12.37796 -24.395203 12.37796 -54.48822l0 0c-8.123047 9.08136 -16.632874 9.08136 -24.75592 0z" fill-rule="nonzero"></path><path stroke="#000000" stroke-width="2.0" stroke-linejoin="round" stroke-linecap="butt" d="m353.60464 634.4893l0 0c0 30.093018 5.541809 54.48822 12.37796 54.48822c6.836151 0 12.37796 -24.395203 12.37796 -54.48822l0 0c-8.123047 9.08136 -16.632874 9.08136 -24.75592 0z" fill-rule="nonzero"></path><path fill="#ffffff" d="m456.65192 648.6311l0 0c0 -22.282715 5.52063 -40.346436 12.330688 -40.346436l0 0c3.2703247 0 6.4066772 4.2507324 8.719147 11.8172c2.312439 7.5664062 3.6115723 17.828674 3.6115723 28.529236l0 0c0 22.282715 -5.5206604 40.346436 -12.330719 40.346436l0 0c-3.2702942 0 -6.4066772 -4.2507324 -8.719116 -11.8172c-2.3124695 -7.5664062 -3.6115723 -17.828674 -3.6115723 -28.529236z" fill-rule="nonzero"></path><path stroke="#000000" stroke-width="4.0" stroke-linejoin="round" stroke-linecap="butt" d="m456.65192 648.6311l0 0c0 -22.282715 5.52063 -40.346436 12.330688 -40.346436l0 0c3.2703247 0 6.4066772 4.2507324 8.719147 11.8172c2.312439 7.5664062 3.6115723 17.828674 3.6115723 28.529236l0 0c0 22.282715 -5.5206604 40.346436 -12.330719 40.346436l0 0c-3.2702942 0 -6.4066772 -4.2507324 -8.719116 -11.8172c-2.3124695 -7.5664062 -3.6115723 -17.828674 -3.6115723 -28.529236z" fill-rule="nonzero"></path><path fill="#000000" d="m456.60464 634.4893l0 0c0 30.093018 5.541809 54.48822 12.37796 54.48822c6.836151 0 12.37796 -24.395203 12.37796 -54.48822l0 0c-8.123047 9.08136 -16.632874 9.08136 -24.75592 0z" fill-rule="nonzero"></path><path stroke="#000000" stroke-width="2.0" stroke-linejoin="round" stroke-linecap="butt" d="m456.60464 634.4893l0 0c0 30.093018 5.541809 54.48822 12.37796 54.48822c6.836151 0 12.37796 -24.395203 12.37796 -54.48822l0 0c-8.123047 9.08136 -16.632874 9.08136 -24.75592 0z" fill-rule="nonzero"></path></g></svg>

